<svg width="79" height="33" viewBox="0 0 79 33" fill="none" xmlns="http://www.w3.org/2000/svg">
<path d="M0.832125 19.456V15.936L11.2961 0.959999H16.5121V15.552H19.3281V19.456H16.5121V24H12.0321V19.456H0.832125ZM12.3201 5.76L5.76013 15.552H12.3201V5.76ZM37.8604 8.224C37.8604 10.08 37.2204 11.6267 35.9404 12.864C34.6817 14.08 32.751 14.688 30.1484 14.688H25.8604V24H22.9484V1.696H30.1484C32.6657 1.696 34.575 2.304 35.8764 3.52C37.199 4.736 37.8604 6.304 37.8604 8.224ZM30.1484 12.288C31.7697 12.288 32.9644 11.936 33.7324 11.232C34.5004 10.528 34.8844 9.52533 34.8844 8.224C34.8844 5.472 33.3057 4.096 30.1484 4.096H25.8604V12.288H30.1484ZM40.3916 15.168C40.3916 13.376 40.7543 11.808 41.4796 10.464C42.205 9.09867 43.197 8.04267 44.4556 7.296C45.7356 6.54933 47.1543 6.176 48.7116 6.176C50.2476 6.176 51.581 6.50667 52.7116 7.168C53.8423 7.82933 54.685 8.66133 55.2396 9.664V6.464H58.1836V24H55.2396V20.736C54.6636 21.76 53.7996 22.6133 52.6476 23.296C51.517 23.9573 50.1943 24.288 48.6796 24.288C47.1223 24.288 45.7143 23.904 44.4556 23.136C43.197 22.368 42.205 21.2907 41.4796 19.904C40.7543 18.5173 40.3916 16.9387 40.3916 15.168ZM55.2396 15.2C55.2396 13.8773 54.973 12.7253 54.4396 11.744C53.9063 10.7627 53.181 10.016 52.2636 9.504C51.3676 8.97067 50.3756 8.704 49.2876 8.704C48.1996 8.704 47.2076 8.96 46.3116 9.472C45.4156 9.984 44.701 10.7307 44.1676 11.712C43.6343 12.6933 43.3676 13.8453 43.3676 15.168C43.3676 16.512 43.6343 17.6853 44.1676 18.688C44.701 19.6693 45.4156 20.4267 46.3116 20.96C47.2076 21.472 48.1996 21.728 49.2876 21.728C50.3756 21.728 51.3676 21.472 52.2636 20.96C53.181 20.4267 53.9063 19.6693 54.4396 18.688C54.973 17.6853 55.2396 16.5227 55.2396 15.2ZM78.2086 6.464L67.6486 32.256H64.6406L68.0966 23.808L61.0246 6.464H64.2566L69.7606 20.672L75.2006 6.464H78.2086Z" fill="white"/>
</svg>
