<svg width="110" height="55" viewBox="0 0 110 55" fill="none" xmlns="http://www.w3.org/2000/svg">
<path d="M20.7237 42C20.2331 42 19.8037 41.816 19.4357 41.448C19.0677 41.08 18.8837 40.6047 18.8837 40.022V33.536H2.78373C2.20106 33.536 1.74106 33.3673 1.40373 33.03C1.06639 32.662 0.867058 32.248 0.805725 31.788C0.775058 31.2973 0.897725 30.8527 1.17373 30.454L19.2057 6.856C19.3897 6.61067 19.6044 6.41133 19.8497 6.258C20.1257 6.10466 20.4631 6.028 20.8617 6.028C21.3831 6.028 21.8124 6.22733 22.1497 6.626C22.5177 6.994 22.7017 7.46933 22.7017 8.052V29.994H26.0597C26.5811 29.994 27.0257 30.132 27.3937 30.408C27.7924 30.684 27.9917 31.144 27.9917 31.788C27.9917 32.248 27.7924 32.662 27.3937 33.03C27.0257 33.3673 26.5811 33.536 26.0597 33.536H22.7017V40.022C22.7017 40.6047 22.5177 41.08 22.1497 41.448C21.7817 41.816 21.3064 42 20.7237 42ZM4.94573 31.374L4.11773 29.994H18.8837V10.536L19.9417 11.732L4.94573 31.374ZM33.1828 42C32.9054 42 32.6708 41.9147 32.4788 41.744C32.3081 41.552 32.2228 41.3173 32.2228 41.04V17.968C32.2228 17.6693 32.3081 17.4347 32.4788 17.264C32.6708 17.0933 32.9054 17.008 33.1828 17.008H39.5828C41.1401 17.008 42.5161 17.3493 43.7108 18.032C44.9268 18.7147 45.8761 19.664 46.5588 20.88C47.2414 22.0747 47.5828 23.4507 47.5828 25.008C47.5828 26.5653 47.2414 27.952 46.5588 29.168C45.8761 30.384 44.9268 31.3333 43.7108 32.016C42.5161 32.6987 41.1401 33.04 39.5828 33.04H34.1428V41.04C34.1428 41.3173 34.0574 41.552 33.8868 41.744C33.7161 41.9147 33.4814 42 33.1828 42ZM34.1428 31.12H39.5828C40.7774 31.12 41.8228 30.864 42.7188 30.352C43.6361 29.8187 44.3508 29.0933 44.8628 28.176C45.3961 27.2587 45.6628 26.2027 45.6628 25.008C45.6628 23.8133 45.3961 22.768 44.8628 21.872C44.3508 20.9547 43.6361 20.24 42.7188 19.728C41.8228 19.1947 40.7774 18.928 39.5828 18.928H34.1428V31.12ZM58.0128 42.192C56.3061 42.192 54.7701 41.808 53.4048 41.04C52.0608 40.2507 50.9941 39.184 50.2048 37.84C49.4368 36.4747 49.0528 34.9493 49.0528 33.264C49.0528 31.5573 49.4368 30.032 50.2048 28.688C50.9941 27.3227 52.0608 26.256 53.4048 25.488C54.7701 24.6987 56.3061 24.304 58.0128 24.304C59.7194 24.304 61.2448 24.6987 62.5888 25.488C63.9328 26.256 64.9888 27.3227 65.7568 28.688C66.5461 30.032 66.9408 31.5573 66.9408 33.264L66.1408 34.544C66.1408 35.9947 65.7781 37.296 65.0528 38.448C64.3488 39.6 63.3888 40.5173 62.1728 41.2C60.9568 41.8613 59.5701 42.192 58.0128 42.192ZM58.0128 40.4C59.3568 40.4 60.5514 40.0907 61.5968 39.472C62.6634 38.832 63.4954 37.9787 64.0928 36.912C64.7114 35.824 65.0208 34.608 65.0208 33.264C65.0208 31.8987 64.7114 30.6827 64.0928 29.616C63.4954 28.528 62.6634 27.6747 61.5968 27.056C60.5514 26.416 59.3568 26.096 58.0128 26.096C56.6901 26.096 55.4954 26.416 54.4288 27.056C53.3621 27.6747 52.5194 28.528 51.9008 29.616C51.2821 30.6827 50.9728 31.8987 50.9728 33.264C50.9728 34.608 51.2821 35.824 51.9008 36.912C52.5194 37.9787 53.3621 38.832 54.4288 39.472C55.4954 40.0907 56.6901 40.4 58.0128 40.4ZM65.9808 42C65.7034 42 65.4688 41.9147 65.2768 41.744C65.1061 41.552 65.0208 41.3173 65.0208 41.04V35.184L65.6288 33.264H66.9408V41.04C66.9408 41.3173 66.8554 41.552 66.6848 41.744C66.5141 41.9147 66.2794 42 65.9808 42ZM74.0035 49.584C73.8755 49.584 73.7262 49.552 73.5555 49.488C72.9795 49.2533 72.8195 48.8587 73.0755 48.304L83.8275 25.008C84.0835 24.4747 84.4782 24.3147 85.0115 24.528C85.5875 24.7627 85.7475 25.1573 85.4915 25.712L74.7395 49.008C74.5475 49.392 74.3022 49.584 74.0035 49.584ZM77.3955 41.584C77.1182 41.712 76.8729 41.744 76.6595 41.68C76.4462 41.616 76.2755 41.4453 76.1475 41.168L69.1395 25.808C69.0115 25.5307 68.9795 25.2853 69.0435 25.072C69.1075 24.8587 69.2782 24.688 69.5555 24.56C69.8329 24.432 70.0782 24.4 70.2915 24.464C70.5049 24.528 70.6755 24.6987 70.8035 24.976L77.8115 40.336C77.9395 40.6133 77.9715 40.8587 77.9075 41.072C77.8435 41.2853 77.6729 41.456 77.3955 41.584Z" fill="white"/>
<path d="M101.226 32.22C100.28 32.22 99.4329 32 98.6863 31.56C97.9396 31.12 97.3463 30.52 96.9063 29.76C96.4796 28.9867 96.2663 28.12 96.2663 27.16C96.2663 26.1867 96.4663 25.32 96.8663 24.56C97.2796 23.7867 97.8396 23.18 98.5463 22.74C99.2529 22.3 100.053 22.08 100.946 22.08C102.546 22.08 103.82 22.68 104.766 23.88C104.886 24.04 104.926 24.2 104.886 24.36C104.86 24.52 104.766 24.6533 104.606 24.76C104.473 24.8533 104.326 24.8867 104.166 24.86C104.006 24.8333 103.873 24.7533 103.766 24.62C103.033 23.7533 102.093 23.32 100.946 23.32C100.293 23.32 99.7129 23.48 99.2063 23.8C98.6996 24.12 98.2996 24.5733 98.0063 25.16C97.7263 25.7333 97.5863 26.4 97.5863 27.16C97.5863 27.8933 97.7396 28.5533 98.0463 29.14C98.3529 29.7133 98.7796 30.1667 99.3263 30.5C99.8729 30.8333 100.506 31 101.226 31C102.226 31 103.033 30.72 103.646 30.16C103.78 30.04 103.926 29.98 104.086 29.98C104.246 29.9667 104.386 30.0133 104.506 30.12C104.64 30.2533 104.706 30.4067 104.706 30.58C104.72 30.74 104.66 30.88 104.526 31C103.646 31.8133 102.546 32.22 101.226 32.22ZM101.126 35C100.033 35 99.0129 34.8 98.0663 34.4C97.1196 34 96.2863 33.44 95.5663 32.72C94.8596 32 94.3063 31.1667 93.9063 30.22C93.5063 29.2733 93.3063 28.2533 93.3063 27.16C93.3063 26.0933 93.5063 25.0867 93.9063 24.14C94.3196 23.1933 94.8863 22.36 95.6063 21.64C96.3263 20.92 97.1529 20.36 98.0863 19.96C99.0329 19.5467 100.046 19.34 101.126 19.34C102.193 19.34 103.193 19.5467 104.126 19.96C105.073 20.36 105.906 20.92 106.626 21.64C107.346 22.36 107.913 23.1933 108.326 24.14C108.74 25.0867 108.946 26.0933 108.946 27.16C108.946 28.2533 108.746 29.2733 108.346 30.22C107.946 31.1667 107.386 32 106.666 32.72C105.96 33.44 105.133 34 104.186 34.4C103.24 34.8 102.22 35 101.126 35ZM101.126 33.88C102.046 33.88 102.913 33.7067 103.726 33.36C104.54 33 105.253 32.5133 105.866 31.9C106.493 31.2733 106.98 30.56 107.326 29.76C107.673 28.9467 107.846 28.08 107.846 27.16C107.846 26.24 107.673 25.38 107.326 24.58C106.98 23.7667 106.5 23.0533 105.886 22.44C105.273 21.8133 104.56 21.3267 103.746 20.98C102.933 20.6333 102.06 20.46 101.126 20.46C100.22 20.46 99.3596 20.6333 98.5463 20.98C97.7463 21.3267 97.0329 21.8067 96.4063 22.42C95.7929 23.0333 95.3063 23.7467 94.9463 24.56C94.5996 25.3733 94.4263 26.24 94.4263 27.16C94.4263 28.0933 94.5996 28.9667 94.9463 29.78C95.2929 30.5933 95.7729 31.3067 96.3863 31.92C97.0129 32.5333 97.7263 33.0133 98.5263 33.36C99.3396 33.7067 100.206 33.88 101.126 33.88Z" fill="white"/>
</svg>
