<svg width="46" height="35" viewBox="0 0 46 35" fill="none" xmlns="http://www.w3.org/2000/svg">
<path d="M45.9166 9.16671V30C45.9166 32.2917 44.0416 34.1667 41.7499 34.1667H8.41658C7.27075 34.1667 6.33325 33.2292 6.33325 32.0834C6.33325 30.9375 7.27075 30 8.41658 30H41.7499V9.16671C41.7499 8.02087 42.6874 7.08337 43.8333 7.08337C44.9791 7.08337 45.9166 8.02087 45.9166 9.16671ZM6.33325 25.8334C2.87492 25.8334 0.083252 23.0417 0.083252 19.5834V7.08337C0.083252 3.62504 2.87492 0.833374 6.33325 0.833374H31.3333C34.7916 0.833374 37.5833 3.62504 37.5833 7.08337V21.6667C37.5833 23.9584 35.7083 25.8334 33.4166 25.8334H6.33325ZM12.5833 13.3334C12.5833 16.7917 15.3749 19.5834 18.8333 19.5834C22.2916 19.5834 25.0833 16.7917 25.0833 13.3334C25.0833 9.87504 22.2916 7.08337 18.8333 7.08337C15.3749 7.08337 12.5833 9.87504 12.5833 13.3334Z" fill="#72E484"/>
</svg>
