<svg width="50" height="50" viewBox="0 0 50 50" fill="none" xmlns="http://www.w3.org/2000/svg">
<path d="M44.1357 0H5.86426C2.63086 0 0 2.63086 0 5.86426V11.7188H50V5.86426C50 2.63086 47.3691 0 44.1357 0ZM6.34766 7.32422C5.53906 7.32422 4.88281 6.66797 4.88281 5.85938C4.88281 5.05078 5.53906 4.39453 6.34766 4.39453C7.15625 4.39453 7.8125 5.05078 7.8125 5.85938C7.8125 6.66797 7.15625 7.32422 6.34766 7.32422ZM12.207 7.32422C11.3984 7.32422 10.7422 6.66797 10.7422 5.85938C10.7422 5.05078 11.3984 4.39453 12.207 4.39453C13.0156 4.39453 13.6719 5.05078 13.6719 5.85938C13.6719 6.66797 13.0156 7.32422 12.207 7.32422ZM43.6523 7.32422H20.0195C19.2109 7.32422 18.5547 6.66797 18.5547 5.85938C18.5547 5.05078 19.2109 4.39453 20.0195 4.39453H43.6523C44.4609 4.39453 45.1172 5.05078 45.1172 5.85938C45.1172 6.66797 44.4609 7.32422 43.6523 7.32422Z" fill="white"/>
<path d="M20.0127 42.6758C20.8217 42.6758 21.4775 42.0199 21.4775 41.2109C21.4775 40.4019 20.8217 39.7461 20.0127 39.7461C19.2037 39.7461 18.5479 40.4019 18.5479 41.2109C18.5479 42.0199 19.2037 42.6758 20.0127 42.6758Z" fill="white"/>
<path d="M33.7822 42.6758C34.5912 42.6758 35.2471 42.0199 35.2471 41.2109C35.2471 40.4019 34.5912 39.7461 33.7822 39.7461C32.9732 39.7461 32.3174 40.4019 32.3174 41.2109C32.3174 42.0199 32.9732 42.6758 33.7822 42.6758Z" fill="white"/>
<path d="M36.082 27.9209C36.4785 28.4629 36.5889 29.1416 36.3848 29.7812L34.1396 36.8145H19.1104L17.3057 29.3643V29.3604L16.7568 27.0664H34.4014C35.0732 27.0664 35.6855 27.3779 36.082 27.9209Z" fill="white"/>
<path d="M0 14.6484V44.1357C0 47.3691 2.63086 50 5.86426 50H44.1357C47.3691 50 50 47.3691 50 44.1357V14.6484H0ZM39.1748 30.6729L36.8223 38.043C37.6562 38.8428 38.1768 39.9668 38.1768 41.2109C38.1768 43.6338 36.2051 45.6055 33.7822 45.6055C31.3594 45.6055 29.3877 43.6338 29.3877 41.2109C29.3877 40.6963 29.4775 40.2031 29.6406 39.7441H24.1543C24.3174 40.2031 24.4072 40.6963 24.4072 41.2109C24.4072 43.6338 22.4355 45.6055 20.0127 45.6055C17.5898 45.6055 15.6182 43.6338 15.6182 41.2109C15.6182 40.2119 15.9531 39.291 16.5166 38.5518L12.5254 21.9727H8.14355C7.33398 21.9727 6.67871 21.3164 6.67871 20.5078C6.67871 19.6992 7.33398 19.043 8.14355 19.043H13.6816C14.3438 19.0366 14.9583 19.5217 15.1064 20.167L16.0557 24.1367H34.4014C36.0186 24.1367 37.4941 24.8857 38.4482 26.1924C39.4023 27.498 39.667 29.1318 39.1748 30.6729Z" fill="white"/>
</svg>
