<svg width="28" height="28" viewBox="0 0 28 28" fill="none" xmlns="http://www.w3.org/2000/svg">
<path d="M15.3708 0.666504C16.8708 0.670504 17.6321 0.678504 18.2894 0.697171L18.5481 0.706504C18.8468 0.717171 19.1414 0.730504 19.4974 0.746504C20.9161 0.813171 21.8841 1.03717 22.7334 1.3665C23.6135 1.70517 24.3548 2.16384 25.0961 2.90384C25.7741 3.57037 26.2987 4.37662 26.6335 5.2665C26.9628 6.11584 27.1868 7.08384 27.2535 8.50384C27.2695 8.8585 27.2828 9.15317 27.2935 9.45317L27.3015 9.71184C27.3215 10.3678 27.3295 11.1292 27.3321 12.6292L27.3335 13.6238V15.3705C27.3367 16.343 27.3265 17.3156 27.3028 18.2878L27.2948 18.5465C27.2841 18.8465 27.2708 19.1412 27.2548 19.4958C27.1881 20.9158 26.9615 21.8825 26.6335 22.7332C26.2997 23.6235 25.7749 24.43 25.0961 25.0958C24.4294 25.7736 23.6232 26.2982 22.7334 26.6332C21.8841 26.9625 20.9161 27.1865 19.4974 27.2532C19.1811 27.2681 18.8646 27.2814 18.5481 27.2932L18.2894 27.3012C17.6321 27.3198 16.8708 27.3292 15.3708 27.3318L14.3761 27.3332H12.6308C11.6578 27.3365 10.6848 27.3263 9.71212 27.3025L9.45345 27.2945C9.13693 27.2825 8.82048 27.2687 8.50412 27.2532C7.08545 27.1865 6.11745 26.9625 5.26678 26.6332C4.37701 26.299 3.57107 25.7743 2.90545 25.0958C2.22685 24.4296 1.70175 23.6233 1.36678 22.7332C1.03745 21.8838 0.813452 20.9158 0.746785 19.4958C0.73193 19.1795 0.718597 18.863 0.706785 18.5465L0.700118 18.2878C0.675548 17.3156 0.664436 16.3431 0.666785 15.3705V12.6292C0.663064 11.6566 0.672842 10.6841 0.696118 9.71184L0.705452 9.45317C0.716118 9.15317 0.729452 8.8585 0.745452 8.50384C0.812118 7.08384 1.03612 6.11717 1.36545 5.2665C1.70027 4.37571 2.22641 3.5692 2.90678 2.90384C3.57224 2.2258 4.37764 1.70115 5.26678 1.3665C6.11745 1.03717 7.08412 0.813171 8.50412 0.746504C8.85878 0.730504 9.15478 0.717171 9.45345 0.706504L9.71212 0.698504C10.6844 0.674814 11.6569 0.664591 12.6295 0.667837L15.3708 0.666504ZM14.0001 7.33317C12.232 7.33317 10.5363 8.03555 9.28607 9.28579C8.03583 10.536 7.33345 12.2317 7.33345 13.9998C7.33345 15.7679 8.03583 17.4636 9.28607 18.7139C10.5363 19.9641 12.232 20.6665 14.0001 20.6665C15.7682 20.6665 17.4639 19.9641 18.7142 18.7139C19.9644 17.4636 20.6668 15.7679 20.6668 13.9998C20.6668 12.2317 19.9644 10.536 18.7142 9.28579C17.4639 8.03555 15.7682 7.33317 14.0001 7.33317ZM14.0001 9.99984C14.5254 9.99975 15.0456 10.1031 15.5309 10.3041C16.0162 10.505 16.4572 10.7996 16.8287 11.1709C17.2002 11.5423 17.4949 11.9832 17.696 12.4685C17.8971 12.9538 18.0007 13.4739 18.0008 13.9992C18.0009 14.5245 17.8975 15.0446 17.6966 15.53C17.4956 16.0153 17.2011 16.4563 16.8297 16.8278C16.4583 17.1993 16.0174 17.494 15.5321 17.6951C15.0469 17.8962 14.5267 17.9998 14.0015 17.9998C12.9406 17.9998 11.9232 17.5784 11.173 16.8283C10.4229 16.0781 10.0015 15.0607 10.0015 13.9998C10.0015 12.939 10.4229 11.9216 11.173 11.1714C11.9232 10.4213 12.9406 9.99984 14.0015 9.99984M21.0014 5.33317C20.5594 5.33317 20.1355 5.50877 19.8229 5.82133C19.5104 6.13389 19.3348 6.55781 19.3348 6.99984C19.3348 7.44186 19.5104 7.86579 19.8229 8.17835C20.1355 8.49091 20.5594 8.6665 21.0014 8.6665C21.4435 8.6665 21.8674 8.49091 22.18 8.17835C22.4925 7.86579 22.6681 7.44186 22.6681 6.99984C22.6681 6.55781 22.4925 6.13389 22.18 5.82133C21.8674 5.50877 21.4435 5.33317 21.0014 5.33317Z" fill="#F5F5F5"/>
</svg>
