<svg width="43" height="43" viewBox="0 0 43 43" fill="none" xmlns="http://www.w3.org/2000/svg">
<path d="M39.4501 3.69998C39.7813 3.34454 39.9616 2.87443 39.953 2.38868C39.9445 1.90292 39.7477 1.43946 39.4042 1.09593C39.0606 0.752396 38.5972 0.555616 38.1114 0.547045C37.6257 0.538475 37.1555 0.718782 36.8001 1.04998L30.6851 7.16248C28.7421 5.83993 26.3987 5.23642 24.0586 5.45592C21.7185 5.67542 19.5282 6.70418 17.8651 8.36498L17.1151 9.11498C16.7689 9.46092 16.4943 9.87169 16.3069 10.3238C16.1195 10.7759 16.023 11.2606 16.023 11.75C16.023 12.2394 16.1195 12.724 16.3069 13.1761C16.4943 13.6283 16.7689 14.039 17.1151 14.385L23.2776 20.545C24.907 19.3871 26.769 18.5977 28.7341 18.2316C30.6992 17.8655 32.7205 17.9315 34.6576 18.425C35.094 16.9823 35.2019 15.4602 34.9735 13.9704C34.7451 12.4805 34.1861 11.0607 33.3376 9.81498L39.4501 3.69998ZM13.8851 17.615L20.0451 23.7775C18.8872 25.4069 18.0978 27.2688 17.7317 29.234C17.3656 31.1991 17.4316 33.2204 17.9251 35.1575C16.4824 35.5938 14.9603 35.7018 13.4705 35.4734C11.9806 35.245 10.5608 34.686 9.3151 33.8375L3.2001 39.95C2.84467 40.2812 2.37455 40.4615 1.8888 40.4529C1.40305 40.4443 0.939583 40.2476 0.59605 39.904C0.252518 39.5605 0.0557377 39.097 0.0471671 38.6113C0.0385966 38.1255 0.218905 37.6554 0.550105 37.3L6.6651 31.185C5.34224 29.2423 4.7383 26.8991 4.95734 24.559C5.17639 22.2189 6.20469 20.0284 7.8651 18.365L8.6151 17.615C8.96104 17.2688 9.37181 16.9941 9.82394 16.8068C10.2761 16.6194 10.7607 16.5229 11.2501 16.5229C11.7395 16.5229 12.2241 16.6194 12.6763 16.8068C13.1284 16.9941 13.5392 17.2688 13.8851 17.615ZM37.5001 41.105C36.2716 41.9257 34.8934 42.4965 33.4443 42.7846C31.9953 43.0728 30.5036 43.0727 29.0545 42.7844C27.6055 42.4961 26.2274 41.9251 24.999 41.1042C23.7706 40.2833 22.7159 39.2285 21.8951 38C21.0743 36.7715 20.5036 35.3933 20.2154 33.9442C19.9273 32.4951 19.9274 31.0035 20.2157 29.5544C20.504 28.1054 21.0749 26.7273 21.8959 25.4989C22.7168 24.2704 23.7716 23.2157 25.0001 22.395C27.4812 20.7374 30.5192 20.1333 33.4457 20.7156C36.3722 21.2979 38.9475 23.0189 40.6051 25.5C42.2627 27.9811 42.8668 31.019 42.2845 33.9455C41.7022 36.8721 39.9812 39.4474 37.5001 41.105ZM32.1351 25.865C31.9603 25.6897 31.7374 25.5703 31.4946 25.5219C31.2518 25.4735 31.0001 25.4982 30.7714 25.593C30.5428 25.6878 30.3474 25.8484 30.2101 26.0543C30.0727 26.2603 29.9997 26.5024 30.0001 26.75V30.5H26.2501C25.9186 30.5 25.6006 30.6317 25.3662 30.8661C25.1318 31.1005 25.0001 31.4185 25.0001 31.75C25.0001 32.0815 25.1318 32.3994 25.3662 32.6339C25.6006 32.8683 25.9186 33 26.2501 33H30.0001V36.75C30.0001 37.0815 30.1318 37.3994 30.3662 37.6339C30.6006 37.8683 30.9186 38 31.2501 38C31.5816 38 31.8996 37.8683 32.134 37.6339C32.3684 37.3994 32.5001 37.0815 32.5001 36.75V33H36.2501C36.5816 33 36.8996 32.8683 37.134 32.6339C37.3684 32.3994 37.5001 32.0815 37.5001 31.75C37.5001 31.4185 37.3684 31.1005 37.134 30.8661C36.8996 30.6317 36.5816 30.5 36.2501 30.5H32.5001V26.75C32.5004 26.5857 32.4683 26.423 32.4057 26.2712C32.3431 26.1193 32.2511 25.9813 32.1351 25.865Z" fill="#72E484"/>
</svg>
