<svg width="70" height="70" viewBox="0 0 70 70" fill="none" xmlns="http://www.w3.org/2000/svg">
<g clip-path="url(#clip0_58_566)">
<path d="M28.6127 24.0474L25.0995 45.9093H30.7149L34.2259 24.0474H28.6127ZM45.5506 32.9527C43.5882 31.9837 42.3853 31.3297 42.3853 30.3385C42.4093 29.4374 43.4025 28.5142 45.6206 28.5142C47.445 28.4684 48.7859 28.8971 49.8031 29.3237L50.3127 29.5511L51.0761 24.9771C49.967 24.5483 48.2084 24.0759 46.0362 24.0759C40.4909 24.0759 36.5862 26.959 36.562 31.0825C36.5161 34.1254 39.3575 35.814 41.4839 36.8269C43.6561 37.866 44.3956 38.5397 44.3956 39.4629C44.3716 40.8804 42.6391 41.5344 41.0225 41.5344C38.7826 41.5344 37.5795 41.1976 35.7529 40.4077L35.0135 40.0709L34.2282 44.8244C35.5473 45.4108 37.9732 45.9269 40.4911 45.9533C46.3843 45.9533 50.2189 43.1138 50.2671 38.7192C50.2863 36.3085 48.788 34.462 45.5506 32.9527ZM65.4721 24.115H61.1276C59.7888 24.115 58.7716 24.5001 58.1919 25.8739L49.8509 45.9093H55.744L57.3671 41.5716H63.9603L64.8025 45.9269H70.0001L65.4721 24.115ZM59.0014 37.194C59.1151 37.2051 61.2634 30.113 61.2634 30.113L62.974 37.194H59.0014ZM20.4074 24.0474L14.9058 38.9006L14.3065 35.9714C13.2892 32.5916 10.1 28.9189 6.54077 27.0946L11.5786 45.8875H17.52L26.3488 24.0498H20.4074V24.0474Z" fill="#4A4A4A"/>
<path d="M12.4557 26.867C12.0269 25.2 10.6596 24.0757 8.80266 24.0518H0.0897301L0 24.4563C6.79669 26.1319 12.5015 31.2877 14.3523 36.1375L12.4557 26.867Z" fill="#1D2A39"/>
</g>
<defs>
<clipPath id="clip0_58_566">
<rect width="70" height="70" fill="white"/>
</clipPath>
</defs>
</svg>
