<svg width="80" height="80" viewBox="0 0 80 80" fill="none" xmlns="http://www.w3.org/2000/svg">
<path d="M26.9245 20.5884C16.8318 20.6529 8.65771 28.8754 8.65771 39.0164C8.65771 49.1897 16.8963 57.4284 27.0374 57.4284C31.7935 57.4284 36.1305 55.6065 39.4034 52.6238C40.0805 52.0112 40.6932 51.3502 41.2736 50.6569H37.5009C37.0011 50.0442 36.5336 49.4155 36.1305 48.7544H42.6279C43.0309 48.1257 43.3856 47.4646 43.692 46.7875H35.0503C34.7601 46.1587 34.5021 45.5138 34.2764 44.8528H44.4497C45.0624 43.0148 45.401 41.0479 45.401 39.0164C45.401 37.6621 45.2559 36.3401 44.9818 35.0664H33.7444C33.8895 34.4054 34.0668 33.7605 34.2603 33.1317H44.4336C44.2079 32.4546 43.9338 31.7935 43.6436 31.1648H35.0342C35.3405 30.5037 35.6952 29.8588 36.0821 29.2301H42.5795C42.1442 28.5368 41.6767 27.8758 41.1607 27.2631H37.5493C38.1136 26.6021 38.7262 25.9733 39.3873 25.409C36.1144 22.4263 31.7774 20.6045 27.0213 20.6045C27.0052 20.5884 26.9729 20.5884 26.9245 20.5884Z" fill="#4A4A4A"/>
<path d="M70.0846 39.0164C70.0846 49.1898 61.8621 57.4445 51.7049 57.4445C41.5477 57.4445 33.3252 49.2059 33.3252 39.0326C33.3252 28.8593 41.5477 20.6045 51.7049 20.6045C61.846 20.5884 70.0846 28.827 70.0846 39.0164Z" fill="#1D2A39"/>
<path d="M70.0846 39.2259C70.0846 49.3992 61.8621 57.654 51.7049 57.654C41.5477 57.654 33.3252 49.4153 33.3252 39.242V39.2259C33.3252 29.0526 41.5477 20.7979 51.7049 20.7979C61.846 20.7979 70.0846 29.0365 70.0846 39.2259C70.0846 39.2098 70.0846 39.2098 70.0846 39.2259Z" fill="#1D2A39"/>
<path d="M26.9245 20.7979C16.8318 20.8623 8.65771 29.0848 8.65771 39.2259C8.65771 49.3992 16.8963 57.654 27.0374 57.654C31.7935 57.654 36.1305 55.8321 39.4034 52.8494C40.0805 52.2368 40.6932 51.5758 41.2736 50.8825H37.5009C37.0011 50.2698 36.5336 49.6411 36.1305 48.98H42.6279C43.0309 48.3513 43.3856 47.6902 43.692 47.0131H35.0503C34.7601 46.3843 34.5021 45.7394 34.2764 45.0784H44.4497C45.0624 43.2404 45.401 41.2735 45.401 39.242C45.401 37.8877 45.2559 36.5657 44.9818 35.292H33.7444C33.8895 34.631 34.0668 33.9861 34.2603 33.3573H44.4336C44.2079 32.6802 43.9338 32.0191 43.6436 31.3904H35.0342C35.3405 30.7293 35.6952 30.0844 36.0821 29.4557H42.5795C42.1442 28.7624 41.6767 28.1014 41.1607 27.4887H37.5493C38.1136 26.8277 38.7262 26.1989 39.3873 25.6346C36.1144 22.6519 31.7774 20.8301 27.0213 20.8301C27.0052 20.7979 26.9729 20.7979 26.9245 20.7979Z" fill="#4A4A4A"/>
<path d="M33.6479 43.918L33.8897 42.2574C33.7607 42.2574 33.5511 42.3219 33.3899 42.3219C32.7127 42.3219 32.6321 41.9672 32.6805 41.6931L33.2287 38.2913H34.2605L34.5023 36.4533H33.5189L33.7123 35.3086H31.7776C31.7293 35.357 30.6168 41.7576 30.6168 42.5315C30.6168 43.6923 31.2617 44.2082 32.1807 44.1921C32.9062 44.1599 33.4544 43.9664 33.6479 43.918ZM34.2766 40.7258C34.2766 43.4988 36.0985 44.1599 37.6624 44.1599C39.0973 44.1599 39.726 43.8374 39.726 43.8374L40.0646 41.9511C40.0646 41.9511 38.9683 42.4348 37.9848 42.4348C35.8889 42.4348 36.2597 40.8709 36.2597 40.8709H40.242C40.242 40.8709 40.4999 39.5972 40.4999 39.0813C40.4999 37.7915 39.855 36.2115 37.7107 36.2115C35.7277 36.2115 34.2766 38.3235 34.2766 40.7258ZM37.7107 37.9688C38.8071 37.9688 38.6136 39.2102 38.6136 39.307H36.437C36.437 39.178 36.6466 37.9688 37.7107 37.9688ZM50.0928 43.918L50.4475 41.7737C50.4475 41.7737 49.4802 42.2574 48.8353 42.2574C47.4487 42.2574 46.8844 41.1933 46.8844 40.0486C46.8844 37.727 48.0775 36.4533 49.4157 36.4533C50.4153 36.4533 51.2053 37.0176 51.2053 37.0176L51.5277 34.9378C51.5277 34.9378 50.3347 34.4541 49.3189 34.4541C47.0618 34.4541 44.853 36.4211 44.853 40.1131C44.853 42.5637 46.0461 44.176 48.3838 44.176C49.0449 44.176 50.0928 43.918 50.0928 43.918ZM22.8941 36.2437C21.556 36.2437 20.5241 36.679 20.5241 36.679L20.2339 38.3719C20.2339 38.3719 21.0884 38.0333 22.3621 38.0333C23.0876 38.0333 23.6196 38.1139 23.6196 38.7104C23.6196 39.0651 23.5551 39.2102 23.5551 39.2102C23.5551 39.2102 22.9747 39.1619 22.7168 39.1619C21.0239 39.1619 19.2504 39.8874 19.2504 42.0639C19.2504 43.789 20.4113 44.176 21.1368 44.176C22.5233 44.176 23.1037 43.2731 23.1521 43.2731L23.0876 44.0309H24.8127L25.5866 38.6298C25.5866 36.3082 23.5874 36.2437 22.8941 36.2437ZM23.3133 40.629C23.3456 40.9676 23.1037 42.4992 21.9268 42.4992C21.3141 42.4992 21.1529 42.0317 21.1529 41.7576C21.1529 41.2256 21.4431 40.5807 22.878 40.5807C23.2166 40.5807 23.2488 40.629 23.3133 40.629ZM27.4084 44.1115C27.8437 44.1115 30.375 44.2244 30.375 41.6125C30.375 39.178 28.0372 39.6617 28.0372 38.6782C28.0372 38.1945 28.4242 38.0333 29.1174 38.0333C29.3915 38.0333 30.4556 38.13 30.4556 38.13L30.6974 36.4049C30.6974 36.4049 30.0042 36.2598 28.8917 36.2598C27.4407 36.2598 25.9735 36.8402 25.9735 38.8233C25.9735 41.0643 28.4241 40.8386 28.4241 41.7899C28.4241 42.4186 27.747 42.467 27.215 42.467C26.296 42.467 25.4737 42.1607 25.4737 42.1607L25.2158 43.8697C25.2641 43.8858 25.7639 44.1115 27.4084 44.1115ZM66.3121 34.6798L65.8929 37.3078C65.8929 37.3078 65.1513 36.2921 64.0066 36.2921C62.217 36.2921 60.7176 38.4525 60.7176 40.9515C60.7176 42.5637 61.5076 44.1276 63.1521 44.1276C64.329 44.1276 64.9739 43.3054 64.9739 43.3054L64.8933 43.9986H66.7958L68.2952 34.6798H66.3121ZM65.4092 39.8068C65.4092 40.8386 64.8933 42.2252 63.8292 42.2252C63.1198 42.2252 62.7974 41.6286 62.7974 40.7096C62.7974 39.1941 63.4745 38.1784 64.3451 38.1784C65.0384 38.1784 65.4092 38.6621 65.4092 39.8068ZM12.3016 44.0148L13.4947 36.9692L13.672 44.0148H15.0263L17.5414 36.9692L16.429 44.0148H18.4282L19.9759 34.6798H16.8804L14.9457 40.4033L14.8329 34.6798H11.9792L10.4153 44.0148H12.3016ZM42.4508 44.0309C43.015 40.7903 43.1279 38.1462 44.4822 38.6298C44.724 37.3723 44.9497 36.8886 45.2077 36.3566C45.2077 36.3566 45.0787 36.3243 44.8369 36.3243C43.9663 36.3243 43.3052 37.5174 43.3052 37.5174L43.4826 36.421H41.6607L40.4354 44.0148H42.4508V44.0309ZM54.6233 36.2437C53.2851 36.2437 52.2533 36.679 52.2533 36.679L51.963 38.3719C51.963 38.3719 52.8175 38.0333 54.0912 38.0333C54.8167 38.0333 55.3488 38.1139 55.3488 38.7104C55.3488 39.0651 55.2843 39.2102 55.2843 39.2102C55.2843 39.2102 54.7039 39.1619 54.4459 39.1619C52.753 39.1619 50.9796 39.8874 50.9796 42.0639C50.9796 43.789 52.1404 44.176 52.8659 44.176C54.2524 44.176 54.849 43.2731 54.8651 43.2731L54.8006 44.0309H56.5257L57.2996 38.6298C57.2996 36.3082 55.3165 36.2437 54.6233 36.2437ZM55.0424 40.629C55.0747 40.9676 54.8329 42.4992 53.6559 42.4992C53.0433 42.4992 52.8982 42.0317 52.8982 41.7576C52.8982 41.2256 53.1884 40.5807 54.6233 40.5807C54.9457 40.5807 54.978 40.629 55.0424 40.629ZM58.8796 44.0309C59.4439 40.7903 59.5568 38.1462 60.911 38.6298C61.1529 37.3723 61.3786 36.8886 61.6366 36.3566C61.6366 36.3566 61.5076 36.3243 61.2657 36.3243C60.3951 36.3243 59.7341 37.5174 59.7341 37.5174L59.9115 36.421H58.0896L56.8643 44.0148H58.8796V44.0309Z" fill="#BFC0C9"/>
</svg>
