<svg width="50" height="50" viewBox="0 0 50 50" fill="none" xmlns="http://www.w3.org/2000/svg">
<path d="M40.2722 36.456C40.2722 34.7914 38.9191 33.4372 37.256 33.4372C35.5928 33.4372 34.2397 34.7914 34.2397 36.456C34.2397 38.1206 35.5928 39.4748 37.256 39.4748C38.9191 39.4748 40.2722 38.1206 40.2722 36.456ZM43.1706 48.3267C43.1706 45.0626 40.5173 42.407 37.256 42.407C33.9946 42.407 31.3413 45.0626 31.3413 48.3267V48.5403C33.11 49.4719 35.1224 50 37.256 50C39.3896 50 41.402 49.4717 43.1706 48.5402V48.3267Z" fill="#72E484"/>
<path d="M38.4031 24.5421V9.56318H31.3234L31.3209 7.3834L25.4168 11.4052C24.741 5.0042 19.3157 0 12.7441 0C5.71699 0 0 5.72188 0 12.7552C0 16.4611 1.58789 19.8023 4.11797 22.1346C4.68027 19.6449 6.29395 17.5501 8.46563 16.3434C7.43477 15.2728 6.79873 13.8188 6.79873 12.218C6.79873 8.93691 9.46582 6.26748 12.744 6.26748C16.0223 6.26748 18.6894 8.93691 18.6894 12.218C18.6894 13.8187 18.0534 15.2728 17.0225 16.3434C19.1943 17.5501 20.808 19.6452 21.3702 22.1351C23.9006 19.8027 25.4883 16.4612 25.4883 12.7552C25.4883 12.47 25.4779 12.1873 25.4594 11.9067L31.3219 15.9096L31.3215 13.7178H34.2514L34.2524 21.4602L34.252 21.4599V24.8487C28.6697 26.2038 24.5117 31.2472 24.5117 37.245C24.5117 37.5093 24.5208 37.7715 24.5367 38.0319L18.4989 33.9072L18.4959 36.1568H15.5661L15.5811 25.1912C16.6515 24.9464 17.6855 24.5632 18.657 24.0514C18.6375 20.8043 15.993 18.1686 12.7441 18.1686C9.49551 18.1686 6.85098 20.8042 6.83125 24.0511C8.22342 24.7845 9.7403 25.2516 11.3039 25.4282V40.4243H18.4961L18.4987 42.6596L24.5752 38.5202C24.8912 41.6917 26.3732 44.5244 28.5843 46.5827C29.1018 44.0013 30.7447 41.8225 32.9771 40.582C31.946 39.5113 31.31 38.057 31.31 36.4561C31.31 33.1746 33.9772 30.505 37.2559 30.505C40.5345 30.505 43.2018 33.1746 43.2018 36.4561C43.2018 38.057 42.5656 39.5112 41.5346 40.582C43.767 41.8225 45.41 44.0013 45.9274 46.5827C48.431 44.2521 50 40.9287 50 37.245C50 30.5988 44.8946 25.1246 38.4031 24.5421Z" fill="#72E484"/>
<path d="M15.7598 12.2181C15.7598 10.5538 14.4069 9.19983 12.7441 9.19983C11.0813 9.19983 9.72852 10.5538 9.72852 12.2181C9.72852 13.8823 11.0813 15.2363 12.7441 15.2363C14.4069 15.2363 15.7598 13.8823 15.7598 12.2181Z" fill="#72E484"/>
</svg>
