<svg width="80" height="56" viewBox="0 0 80 56" fill="none" xmlns="http://www.w3.org/2000/svg">
<path d="M80 50.8563C80 53.4681 77.8828 55.5855 75.2711 55.5855H4.72891C2.11719 55.5856 0 53.4681 0 50.8563V5.14313C0 2.53141 2.11719 0.414062 4.72891 0.414062H75.2711C77.883 0.414062 80 2.53141 80 5.14313V50.8563Z" fill="#4A4A4A"/>
<path opacity="0.15" d="M3.36203 50.8563V5.14313C3.36203 2.53141 5.47953 0.414062 8.09125 0.414062H4.72875C2.11719 0.414062 0 2.53125 0 5.14313V50.8564C0 53.4683 2.11719 55.5856 4.72891 55.5856H8.09141C5.47969 55.5856 3.36203 53.4681 3.36203 50.8563Z" fill="#202121"/>
<path d="M11.6548 22.4919H14.0451L12.8503 19.4497L11.6548 22.4919ZM24.3667 32.7042V34.1169H28.3868V35.6383H24.3667V37.2685H28.8212L30.8854 34.9863L28.9299 32.7042H24.3667ZM55.7654 19.4497L54.4615 22.4919H56.9607L55.7654 19.4497ZM35.992 38.1367V31.9439L33.167 34.9863L35.992 38.1367ZM41.3157 33.6825C41.207 33.0306 40.772 32.7042 40.1198 32.7042H37.8387V34.6599H40.2292C40.8809 34.66 41.3157 34.3342 41.3157 33.6825ZM48.9204 34.4431C49.1378 34.3342 49.2468 34.008 49.2468 33.6827C49.3556 33.2485 49.1378 33.0308 48.9204 32.9221C48.7037 32.8133 48.3773 32.8133 48.0518 32.8133H45.8784V34.5519H48.0517C48.3771 34.5519 48.7035 34.5519 48.9204 34.4431Z" fill="#BFC0C9"/>
<path d="M64.5652 16.6245V17.9283L63.9138 16.6245H58.8079V17.9283L58.1557 16.6245H51.2023C50.0073 16.6245 49.029 16.842 48.1602 17.2765V16.6245H43.2713V17.2765C42.7282 16.8422 42.0763 16.6245 41.2071 16.6245H23.7149L22.5193 19.3408L21.3244 16.6245H15.7835V17.9283L15.2402 16.6245H10.4598L8.28647 21.7308L5.78788 27.2717L5.74194 27.3806H11.3983L11.4377 27.2717L12.0899 25.6423H13.5023L14.1541 27.3806H20.4551V26.0769L20.9987 27.3804H24.1491L24.6921 26.0769V27.3806H39.7943V24.5556H40.0121C40.2291 24.5556 40.2291 24.5556 40.2291 24.8817V27.2719H48.0518V26.62C48.7037 26.9464 49.6809 27.2719 50.9848 27.2719H54.2446L54.8965 25.5339H56.4171L57.069 27.2719H63.3702V25.6425L64.3485 27.2719H69.4548V16.6245H64.5652ZM27.7346 25.7512H25.9962V19.7754L25.8874 20.0247V20.0217L23.3599 25.7512H21.7587L19.1513 19.7754V25.7512H15.4576L14.6971 24.1215H11.0027L10.2421 25.7512H8.33226L11.5463 18.1458H14.2623L17.3043 25.425V18.1458H20.1827L20.234 18.2547H20.2377L21.6085 21.2381L22.5929 23.4734L22.6277 23.3608L24.8005 18.1459H27.7344V25.7512H27.7346ZM35.2315 19.7754H30.9941V21.1878H35.1227V22.7087H30.9941V24.2303H35.2315V25.8595H29.1473V18.1459H35.2315V19.7754ZM42.9807 22.577C42.9835 22.5795 42.9871 22.5812 42.9905 22.5836C43.0316 22.627 43.0668 22.6706 43.0968 22.7123C43.3049 22.9851 43.4732 23.3909 43.4816 23.9859L43.4833 24.0167C43.4833 24.0226 43.4844 24.0278 43.4844 24.0339L43.4841 24.0433C43.4866 24.1031 43.4882 24.1642 43.4882 24.2303V25.7514H41.8588V24.8819C41.8588 24.4473 41.8588 23.7953 41.5324 23.3608C41.4413 23.2676 41.3326 23.1934 41.2127 23.1423C41.0499 23.0369 40.7413 23.0351 40.2291 23.0351H38.2729V25.7514H36.4263V18.1459H40.5552C41.5324 18.1459 42.1846 18.1459 42.728 18.4719C43.2604 18.7915 43.5819 19.3217 43.5941 20.1612C43.569 21.3175 42.8268 21.9519 42.2932 22.1658C42.2932 22.1658 42.6557 22.2387 42.9807 22.577ZM46.6393 25.7512H44.7921V18.1458H46.6393V25.7512ZM67.8255 25.7512H65.4349L61.9583 19.9926V24.7731L61.9469 24.7619V25.7559H60.1115V25.7514H58.2643L57.6124 24.1217H53.8094L53.1576 25.8597H51.0934C50.2248 25.8597 49.1376 25.6426 48.486 24.9908C47.8341 24.3389 47.5085 23.4697 47.5085 22.0575C47.5085 20.9711 47.7255 19.8839 48.486 19.015C49.0288 18.3626 50.0071 18.1459 51.2019 18.1459H52.9407V19.7754H51.2019C50.5501 19.7754 50.2248 19.8837 49.7893 20.2103C49.464 20.5361 49.2465 21.1878 49.2465 21.9483C49.2465 22.8176 49.3552 23.3608 49.7893 23.7953C50.116 24.1217 50.5502 24.2305 51.0934 24.2305H51.8538L54.3524 18.255H57.0688L60.1113 25.5342V18.2551H62.8273L65.9774 23.5786V18.2551H67.8252V25.7515H67.8255V25.7512Z" fill="#BFC0C9"/>
<path d="M41.4315 21.3134C41.4632 21.2795 41.4919 21.241 41.5163 21.197C41.6147 21.0412 41.7275 20.7605 41.6668 20.3776C41.664 20.3442 41.6586 20.311 41.6504 20.2785C41.6483 20.2698 41.6486 20.2621 41.6463 20.2534L41.6452 20.2535C41.5911 20.0674 41.4532 19.953 41.3155 19.8837C41.0977 19.7754 40.7718 19.7754 40.446 19.7754H38.2727V21.514H40.446C40.7718 21.514 41.0979 21.514 41.3155 21.4051C41.3482 21.3885 41.3772 21.366 41.4052 21.3405L41.4055 21.342C41.4057 21.3418 41.4168 21.3302 41.4315 21.3134ZM74.2352 36.616C74.2352 35.8555 74.0182 35.0948 73.6924 34.5516V29.6627H73.6874V29.3363H68.4557C67.7782 29.3363 66.956 29.988 66.956 29.988V29.3363H61.9585C61.1975 29.3363 60.2204 29.5538 59.7852 29.988V29.3363H50.8765V29.9879C50.225 29.4451 49.029 29.3362 48.4861 29.3362H42.6191V29.9877C42.076 29.4449 40.7716 29.336 40.1194 29.336H33.6016L32.0802 30.9659L30.6677 29.336H20.8899V40.3099H30.4508L32.0218 38.7385L33.3835 40.3099H39.4682V37.8112H40.0118C40.7716 37.8112 41.7499 37.8112 42.5104 37.4848V40.4185H47.3996V37.5935H47.6163C47.9427 37.5935 47.9427 37.5935 47.9427 37.9195V40.4185H62.7182C63.6968 40.4185 64.674 40.2007 65.2171 39.7662V40.4185H69.8893C70.8665 40.4185 71.8451 40.3099 72.4969 39.8751C73.4972 39.2749 74.1277 38.2126 74.2215 36.9455C74.2258 36.908 74.2313 36.8705 74.2347 36.8329L74.2283 36.8268C74.2324 36.7565 74.2352 36.687 74.2352 36.616ZM40.0119 35.9643H37.8385V38.7888H34.2674L32.189 36.3984L32.1818 36.4063L32.0802 36.2895L29.69 38.7888H22.7368V31.1837H29.7988L31.7282 33.297L32.1338 33.7395L32.1888 33.6824L34.4707 31.1838H40.2288C41.3463 31.1838 42.5977 31.4596 43.0719 32.5966C43.129 32.8218 43.1621 33.0721 43.1621 33.3565C43.1621 35.5293 41.641 35.9643 40.0119 35.9643ZM50.8765 35.8554C51.0935 36.1805 51.2022 36.6159 51.2022 37.268V38.7887H49.3555V37.8112C49.3555 37.3759 49.3555 36.6159 49.0291 36.2895C48.8124 35.9643 48.3772 35.9643 47.7258 35.9643H45.7704V38.7888H43.9235V31.0749H48.0518C48.9204 31.0749 49.6808 31.0749 50.225 31.4005C50.7679 31.7268 51.2022 32.2701 51.2022 33.1393C51.2022 34.3341 50.4421 34.986 49.8986 35.2037C50.4421 35.4201 50.7679 35.638 50.8765 35.8554ZM58.3733 32.704H54.1355V34.1165H58.2643V35.6379H54.1355V37.1591H58.3733V38.7887H52.2891V31.0748H58.3733V32.704ZM62.9361 38.7888H59.4593V37.1593H62.9361C63.2615 37.1593 63.4793 37.1593 63.6971 36.9418C63.8058 36.8329 63.9138 36.616 63.9138 36.3985C63.9138 36.1807 63.8058 35.9645 63.6971 35.8555C63.588 35.747 63.3704 35.6382 63.0446 35.6382C61.3061 35.5295 59.2419 35.6382 59.2419 33.2482C59.2419 32.1616 59.8938 30.9663 61.8496 30.9663H65.4347V32.813H62.0669C61.7411 32.813 61.5235 32.813 61.306 32.9218C61.0893 33.0307 61.0893 33.2482 61.0893 33.4652C61.0893 33.7913 61.306 33.9001 61.5233 34.0079C61.7411 34.1168 61.9582 34.1168 62.1752 34.1168H63.1532C64.1311 34.1168 64.7829 34.3341 65.2174 34.7688C65.5435 35.0949 65.7608 35.6382 65.7608 36.3985C65.7608 38.0277 64.783 38.7888 62.9361 38.7888ZM72.2797 38.0277C71.8457 38.4629 71.0847 38.7888 69.9979 38.7888H66.5219V37.1593H69.9977C70.3238 37.1593 70.5416 37.1593 70.7586 36.9418C70.8669 36.8329 70.976 36.616 70.976 36.3985C70.976 36.1807 70.8669 35.9645 70.7586 35.8555C70.6499 35.747 70.4329 35.6382 70.1068 35.6382C68.369 35.5295 66.3041 35.6382 66.3041 33.2484C66.3041 32.2157 66.8949 31.2829 68.3519 31.0059C68.5374 30.9798 68.7245 30.9665 68.9118 30.9663H72.4974V32.813H69.1291C68.803 32.813 68.586 32.813 68.369 32.9218C68.2596 33.0307 68.1508 33.2482 68.1508 33.4652C68.1508 33.7913 68.2596 33.9001 68.586 34.0079C68.803 34.1168 69.0204 34.1168 69.2379 34.1168H70.2154C70.6902 34.1168 71.0493 34.1754 71.3779 34.2909C71.6788 34.3998 72.675 34.8454 72.8979 36.0087C72.9172 36.1305 72.9314 36.2577 72.9314 36.3985C72.9314 37.0505 72.7141 37.5937 72.2797 38.0277Z" fill="#BFC0C9"/>
</svg>
