<svg width="80" height="50" viewBox="0 0 80 50" fill="none" xmlns="http://www.w3.org/2000/svg">
<path d="M10.0002 13L22.0002 12L23.0002 16L32.5002 13L34.5002 16L45.5002 16L47.5002 13.5L72.5002 13L63.0002 40.5H30.5002V26.5L5.00024 25.4487L10.0002 13Z" fill="#BFC0C9"/>
<path d="M59.3042 19.582C58.7037 19.3914 57.9214 20.0628 57.5801 21.0911C57.2211 22.1194 57.4405 23.1077 58.0477 23.2939C58.6527 23.4867 59.4327 22.8108 59.7762 21.7847C60.1286 20.7587 59.9136 19.7703 59.3042 19.582ZM53.6023 15.6285C53.3253 15.4468 52.882 15.3604 52.2748 15.3604H50.4178L49.7485 18.6113H51.938C52.5075 18.6113 52.9574 18.4784 53.292 18.2146C53.62 17.9509 53.8372 17.5454 53.9568 16.9958C53.9768 16.8961 53.9856 16.803 54.0034 16.7188C54.0078 16.639 54.0211 16.5615 54.0211 16.4839C54.0211 16.0917 53.8837 15.808 53.6023 15.6285ZM51.2355 35.3315L50.7989 36.8784H52.5075L52.9441 35.3315H51.2355ZM52.9352 29.3526L52.3524 31.3892C52.3524 31.3892 53.3474 31.0058 54.2095 30.8972C54.4 30.1858 54.646 29.3526 54.646 29.3526H52.9352ZM52.082 32.3465L51.4948 34.4761C51.4948 34.4761 52.6028 33.931 53.3563 33.8845C53.5801 33.0645 53.7973 32.3465 53.7973 32.3465H52.082ZM36.1419 19.3869C35.9269 19.1543 35.6233 19.0368 35.2289 19.0368C34.9889 19.0298 34.7503 19.0754 34.5298 19.1703C34.3093 19.2653 34.1122 19.4073 33.9524 19.5864C33.6178 19.9543 33.3807 20.5061 33.23 21.244C33.1815 21.4584 33.16 21.678 33.1657 21.8977C33.1657 22.3166 33.2743 22.6401 33.4915 22.8684C33.7042 23.0966 34.0078 23.2097 34.4067 23.2097C34.6464 23.2172 34.885 23.1726 35.1057 23.0788C35.3265 22.9851 35.5243 22.8445 35.6854 22.6667C36.0178 22.3077 36.2527 21.7626 36.3989 21.0401C36.4428 20.8182 36.4651 20.5926 36.4654 20.3664C36.4654 19.9476 36.3591 19.6196 36.1419 19.3869Z" fill="#4A4A4A"/>
<path d="M76.215 0.536959L57.3451 0.532527H57.3407L57.2942 0.534744C54.7014 0.614522 51.4726 2.69319 50.8853 5.25718L49.2078 12.6744H47.6521L49.3296 5.25718C49.9191 2.69319 53.1479 0.614522 55.7407 0.534744L55.785 0.532527H48.2415L34.8255 0.525879L34.7235 0.530311C32.1241 0.583496 28.8532 2.67546 28.2659 5.2594L26.5884 12.6766H24.7756L26.451 5.2594C27.0382 2.67768 30.3114 0.583496 32.9108 0.530311L15.5945 0.525879C12.9795 0.525879 9.62881 2.64222 9.03047 5.2594L0.104155 44.7453C0.0516834 44.9779 0.0168659 45.2143 0 45.4522L0 46.1835C0.177285 48.0671 1.61773 49.4433 3.68753 49.4721H21.1102C18.5374 49.4322 16.9352 47.327 17.5247 44.7386L19.5967 35.573H21.4138L19.3418 44.7386C18.7524 47.3292 20.3546 49.4322 22.9252 49.4721H44C41.4249 49.4322 39.8271 47.327 40.4144 44.7386L41.108 41.6671H42.6637L41.9701 44.7386C41.3828 47.3292 42.9828 49.4322 45.5557 49.4721H65.3784C67.9158 49.3458 70.3756 47.2915 70.954 44.7563L79.8781 5.27048C80.472 2.65774 78.8277 0.534743 76.215 0.536959ZM16.6515 23.7214C15.7097 24.4173 14.4909 24.7674 12.9994 24.7674C11.5945 24.7674 10.5662 24.4106 9.91025 23.6949C9.45596 23.1874 9.2277 22.5403 9.2277 21.7602C9.2277 21.4367 9.26537 21.0888 9.34294 20.7165L10.9319 13.0533H13.3319L11.7629 20.6278C11.7141 20.8406 11.6964 21.0356 11.6986 21.2106C11.6818 21.552 11.7835 21.8887 11.9867 22.1636C12.2704 22.5336 12.7313 22.7176 13.3762 22.7176C14.1141 22.7176 14.7213 22.5381 15.1934 22.1724C15.6654 21.8112 15.9734 21.2993 16.1108 20.63L17.6842 13.0555H20.0709L18.482 20.7187C18.2161 22.0195 17.6022 23.0145 16.6515 23.7214ZM26.2427 19.8854L25.3119 24.5458H23.5679L24.4122 20.322C24.4986 19.8854 24.4742 19.5597 24.3391 19.3514C24.2083 19.1408 23.9557 19.0367 23.59 19.0367C23.1732 19.0257 22.768 19.1748 22.4576 19.4533C22.1329 19.7636 21.9182 20.1712 21.846 20.6145L21.0681 24.5436H19.3241L20.6914 17.7026H22.3867L22.1939 18.6888L22.4355 18.4073C22.9873 17.8201 23.6543 17.5275 24.441 17.5275C25.1546 17.5275 25.6687 17.7359 25.9922 18.1525C26.3091 18.5713 26.3956 19.1453 26.2427 19.8854ZM57.159 18.4361C58.6216 17.7558 59.3817 18.1591 60.2127 18.8084L61.0061 18.2611L62.8875 18.0949L61.4692 24.5436L59.3019 24.4882L58.9828 24.1181C53.4936 26.4583 55.1623 19.3602 57.159 18.4361ZM61.0393 28.7541L60.6493 30.0971H59.0648C58.4598 30.1303 58.1518 29.9043 58.1208 29.4034L58.0476 27.6616H60.2061L60.2969 28.455C60.2814 28.6588 60.4055 28.7541 60.6604 28.7541H61.0393ZM48.5075 13.4611H53.4338C54.3778 13.4611 55.1069 13.6782 55.6144 14.0993C56.1175 14.5248 56.3679 15.1364 56.3679 15.9342V15.9586C56.3679 16.1093 56.3568 16.2821 56.3413 16.466C56.3183 16.6543 56.2865 16.8414 56.246 17.0267C56.06 18.0246 55.5299 18.9257 54.7479 19.573C53.9682 20.2128 52.9863 20.5545 51.9778 20.537H49.3363L48.5208 24.5436H46.236L48.5075 13.4611ZM40.1307 17.7048H41.8283L41.6355 18.691L41.8726 18.4095C42.4222 17.8223 43.0936 17.5298 43.8781 17.5298C44.5873 17.5298 45.1036 17.7381 45.4271 18.1547C45.7396 18.5713 45.8305 19.1475 45.6776 19.8854L44.7468 24.5458H43.0028L43.8471 20.322C43.9335 19.8854 43.9136 19.5597 43.7784 19.3514C43.6388 19.1408 43.3928 19.0367 43.0294 19.0367C42.6119 19.026 42.2061 19.175 41.8947 19.4533C41.5699 19.7632 41.3558 20.1712 41.2853 20.6145L40.5053 24.5436H38.7634L40.1307 17.7048ZM39.59 28.5613L39.2421 29.8467H35.9889C35.6144 30.4095 35.1535 30.6732 34.5972 30.64H32.9019L33.272 29.2971H33.6C33.9036 29.2971 34.1053 29.1973 34.2006 28.9979L35.0515 27.7214H37.3319L36.8554 28.5613H39.59ZM28.9662 24.5414H27.0914L28.5607 17.7048H30.4399L28.9662 24.5414ZM30.6925 16.8738H28.7978L29.1501 15.2118H31.0471L30.6925 16.8738ZM31.3839 21.6516C31.4039 21.4766 31.4283 21.3104 31.4593 21.153C31.6853 20.0406 32.1573 19.1586 32.8886 18.5093C33.612 17.8576 34.5568 17.5064 35.5302 17.5275C36.3767 17.5275 37.046 17.7647 37.5357 18.2367C38.0255 18.7109 38.2715 19.3536 38.2715 20.1669C38.2695 20.4985 38.2331 20.829 38.1629 21.153C37.9457 22.2455 37.4737 23.1187 36.7402 23.7569C36.0089 24.4018 35.1313 24.7209 34.1075 24.7209C33.2609 24.7209 32.5939 24.4882 32.1042 24.025C31.61 23.553 31.3618 22.9214 31.3596 22.117C31.3596 21.9752 31.3684 21.8201 31.3839 21.6516ZM36.8953 39.0145H33.2277C32.5296 39.0145 32.2925 38.6156 32.5097 37.8178L33.2055 35.2782H31.7075L32.0864 33.8777H33.5867L33.9524 32.5347H32.5208L32.8975 31.1408H38.8897L38.5086 32.5347H36.0997L35.7319 33.8821H38.0765L37.6953 35.2782H35.3485L34.8033 37.266C34.6704 37.5962 34.8476 37.7469 35.3352 37.7137H37.2454L36.8953 39.0145ZM46.5573 35.0234C46.3734 35.6904 45.8859 36.0361 45.097 36.0716H44.0554L44.051 37.5165C44.031 37.7425 44.2416 37.8622 44.6737 37.8622H45.6488L45.3274 39.0101H42.9828C42.3291 39.0345 42.0033 38.7242 42.0122 38.0616L42.1584 34.1791H44.1152L44.0753 35.0234H44.5961C44.8598 35.0234 44.9906 34.937 44.9906 34.773L45.1457 34.2256H46.7679L46.5573 35.0234ZM45.3119 33.8245H41.015L40.0089 37.512C39.9512 37.707 40.031 37.8112 40.2504 37.8112H41.097L40.7845 38.9569H38.6349C37.8083 38.9569 37.467 38.7131 37.6022 38.2101L40.4476 27.7104H42.4532L42.3623 28.5281C42.3623 28.5281 43.4947 27.6793 44.5186 27.6793H48.3125L46.8632 32.9292C46.7435 33.532 46.2271 33.8267 45.3119 33.8245ZM54.4997 38.3696L54.3136 39.0167H52.0953L52.2814 38.3696H47.9003L48.3235 36.876H48.7623L50.903 29.3503H50.462L50.9141 27.7569H53.2055L53.1058 28.3442C53.1058 28.3442 54.2737 27.7569 55.1202 27.7569H57.9524L57.5025 29.3503H57.0593L54.9186 36.876H55.364L54.9452 38.3696H54.4997ZM63.9934 31.9852H61.7729L61.3895 33.3281H63.61L63.1934 34.7685H60.7224L60.164 35.6129H61.3673L61.6488 37.3104C61.682 37.4788 61.8305 37.5586 62.0853 37.5586H62.462L62.0654 38.9547H60.7335C60.0465 38.9901 59.692 38.7619 59.6609 38.2588L59.3374 36.7165L58.2382 38.363C58.1292 38.581 57.9555 38.7601 57.741 38.8759C57.5265 38.9917 57.2815 39.0386 57.0393 39.0101H55.005L55.4061 37.614H56.0355C56.1672 37.6115 56.2967 37.5788 56.4138 37.5185C56.531 37.4582 56.6328 37.3718 56.7114 37.266L58.4332 34.7752H56.2083L56.6249 33.3347H59.0338L59.4194 31.994H57.0061L57.4205 30.5491H64.4011L63.9934 31.9852ZM66.6083 25.8622C65.8903 27.4001 65.2011 28.2954 64.7956 28.712C64.3878 29.1264 63.5878 30.0838 61.6532 30.0129L61.8216 28.8406C63.446 28.3419 64.3258 26.086 64.8288 25.0843L64.2305 17.7226L65.4825 17.7048H66.5352L66.6482 22.3231L68.6294 17.7048H70.6327L66.6083 25.8622Z" fill="#4A4A4A"/>
<path d="M41.6709 31.4358L41.385 32.4795H44.4432C44.6936 32.515 44.8354 32.4153 44.8532 32.1804L45.0615 31.4358H41.6709ZM42.2914 29.1953L41.8858 30.6114C41.8858 30.6114 42.4487 30.2058 43.3883 30.1903C44.3302 30.177 45.4027 30.1903 45.4027 30.1903L45.6753 29.1953H42.2914Z" fill="#4A4A4A"/>
</svg>
