<svg width="80" height="34" viewBox="0 0 80 34" fill="none" xmlns="http://www.w3.org/2000/svg">
<path d="M15.1197 4.40799C16.0616 3.22986 16.7007 1.64814 16.5322 0.0317383C15.1535 0.100332 13.471 0.941424 12.4969 2.12033C11.6222 3.13002 10.8482 4.77799 11.0501 6.32658C12.5976 6.4608 14.144 5.55299 15.1197 4.40799ZM16.5146 6.62893C14.2669 6.49502 12.3558 7.90455 11.2824 7.90455C10.2085 7.90455 8.56475 6.69643 6.78694 6.72893C4.47303 6.76299 2.326 8.07127 1.15178 10.152C-1.26338 14.3147 0.514437 20.4894 2.86303 23.8795C4.0035 25.5567 5.37819 27.4036 7.18928 27.3372C8.90053 27.27 9.57131 26.2291 11.6513 26.2291C13.7299 26.2291 14.3341 27.3372 16.1455 27.3036C18.0241 27.27 19.1985 25.6255 20.339 23.9466C21.6474 22.0346 22.183 20.1885 22.2166 20.087C22.1829 20.0535 18.5943 18.6767 18.561 14.5488C18.5271 11.0924 21.3785 9.44814 21.5127 9.34627C19.9027 6.96502 17.3868 6.69643 16.5146 6.62893ZM36.0857 1.95111C40.971 1.95111 44.3727 5.31861 44.3727 10.2214C44.3727 15.1417 40.9008 18.5267 35.9632 18.5267H30.5543V27.1285H26.6463V1.95111H36.0857ZM30.5541 15.2464H35.0382C38.4407 15.2464 40.3771 13.4145 40.3771 10.2389C40.3771 7.06361 38.4407 5.24893 35.0557 5.24893H30.5541V15.2464ZM45.3938 21.9117C45.3938 18.7011 47.854 16.7295 52.2163 16.4853L57.241 16.1888V14.7756C57.241 12.7342 55.8626 11.5128 53.5599 11.5128C51.3783 11.5128 50.0174 12.5596 49.6863 14.1999H46.1269C46.3363 10.8846 49.1626 8.44189 53.6993 8.44189C58.1483 8.44189 60.9922 10.7974 60.9922 14.4788V27.1285H57.3804V24.11H57.2935C56.2293 26.1516 53.9085 27.4425 51.5008 27.4425C47.9065 27.4425 45.3938 25.2091 45.3938 21.9117ZM57.2408 20.2542V18.8061L52.7218 19.0852C50.471 19.2424 49.1974 20.2369 49.1974 21.8072C49.1974 23.4122 50.5233 24.4592 52.5474 24.4592C55.1819 24.4589 57.2408 22.6444 57.2408 20.2542ZM64.4019 33.881V30.8275C64.6807 30.8972 65.3087 30.8972 65.6229 30.8972C67.3676 30.8972 68.3099 30.1645 68.8854 28.2802C68.8854 28.2452 69.2172 27.1635 69.2172 27.146L62.5872 8.7733H66.6696L71.3113 23.7088H71.3807L76.0224 8.7733H80.0001L73.1251 28.088C71.5554 32.5375 69.7407 33.9681 65.9371 33.9681C65.6229 33.9681 64.6805 33.9331 64.4019 33.881Z" fill="#4A4A4A"/>
</svg>
