<svg width="80" height="32" viewBox="0 0 80 32" fill="none" xmlns="http://www.w3.org/2000/svg">
<path d="M37.3382 15.5721V24.8264H34.4014V1.97363H42.1871C44.1604 1.97363 45.8429 2.63145 47.2196 3.94691C48.627 5.26238 49.3306 6.86848 49.3306 8.7652C49.3306 10.7079 48.627 12.3139 47.2196 13.6141C45.8582 14.9143 44.1757 15.5568 42.1871 15.5568H37.3382V15.5721ZM37.3382 4.78816V12.7575H42.2484C43.4109 12.7575 44.39 12.3599 45.1546 11.5797C45.9348 10.7996 46.3325 9.85129 46.3325 8.78051C46.3325 7.72504 45.9348 6.79191 45.1546 6.01191C44.3898 5.20113 43.4262 4.80348 42.2484 4.80348H37.3382V4.78816ZM57.0093 8.67348C59.1814 8.67348 60.8946 9.25473 62.1489 10.4172C63.4032 11.5797 64.0303 13.1705 64.0303 15.1897V24.8264H61.2311V22.6544H61.1087C59.9003 24.4441 58.2789 25.3313 56.2598 25.3313C54.5314 25.3313 53.0934 24.8264 51.9309 23.8016C50.7684 22.7768 50.1871 21.5071 50.1871 19.9775C50.1871 18.3561 50.799 17.0713 52.0228 16.1229C53.2465 15.1593 54.8832 14.685 56.9176 14.685C58.6614 14.685 60.0993 15.0063 61.2159 15.6486V14.9757C61.2159 13.9508 60.8182 13.0943 60.0075 12.3754C59.1967 11.6564 58.2484 11.3046 57.1623 11.3046C55.5256 11.3046 54.2254 11.9929 53.277 13.3849L50.6918 11.7635C52.1145 9.69832 54.2254 8.67348 57.0093 8.67348ZM53.2159 20.0233C53.2159 20.7882 53.5371 21.4307 54.1948 21.9354C54.8373 22.4402 55.6021 22.7002 56.474 22.7002C57.7131 22.7002 58.8143 22.2413 59.7781 21.3235C60.7418 20.4057 61.2312 19.3349 61.2312 18.096C60.3134 17.3771 59.0439 17.0099 57.4072 17.0099C56.214 17.0099 55.2198 17.3005 54.4243 17.8664C53.6136 18.463 53.2159 19.1821 53.2159 20.0233ZM79.9998 9.17816L70.2101 31.6944H67.1814L70.8218 23.8168L64.3668 9.17816H67.5637L72.2139 20.4057H72.2751L76.8028 9.17816H79.9998Z" fill="#4A4A4A"/>
<path d="M25.412 10.9507H13.1016V15.9985L20.1914 16.0001C19.9039 17.6796 18.9784 19.1113 17.5605 20.0658V20.0668L17.562 20.0658L17.4344 23.0829L21.7823 23.3393L21.7806 23.3408C24.2448 21.0602 25.6569 17.6888 25.6569 13.7057C25.6577 12.7819 25.5757 11.8599 25.412 10.9507Z" fill="#404040"/>
<path d="M17.5615 20.0661L17.56 20.067C16.3855 20.8588 14.8731 21.3219 13.1042 21.3219C9.68545 21.3219 6.78529 19.0183 5.7467 15.9131H5.74623L5.7467 15.9147L2.11686 15.3398L1.39404 19.2916C3.55107 23.5709 7.98357 26.5073 13.1044 26.5073C16.6429 26.5073 19.6159 25.3439 21.7803 23.3409C21.7809 23.3405 21.7815 23.34 21.782 23.3394L17.5615 20.0661Z" fill="#595959"/>
<path d="M5.33687 13.4075C5.33687 12.5356 5.48219 11.6928 5.74687 10.9004L4.61344 7.52295H1.39344C0.501719 9.29279 0 11.2905 0 13.4075C0 15.5245 0.503281 17.5222 1.39344 19.292L1.39406 19.2915L5.74687 15.9145C5.47582 15.1064 5.33737 14.2598 5.33687 13.4075Z" fill="#444443"/>
<path d="M13.1045 0.306152C7.9848 0.306152 3.55043 3.24303 1.39355 7.52303L5.74684 10.9005C6.78543 7.79537 9.68559 5.49178 13.1043 5.49178C15.0362 5.49178 16.7664 6.15725 18.1323 7.4574L21.8723 3.72053C19.6009 1.60475 16.6395 0.306152 13.1045 0.306152Z" fill="#545454"/>
</svg>
