<svg width="78" height="30" viewBox="0 0 78 30" fill="none" xmlns="http://www.w3.org/2000/svg">
<path d="M42.8622 19.8451L45.4041 19.0451L44.5783 17.2128C43.9719 17.9741 43.3654 18.9548 42.8622 19.8451ZM41.9976 11.4709L37.017 0.374023L0.552246 2.43855L10.6555 30L30.1008 23.8709C28.8621 22.0903 28.4105 19.9741 29.8427 18.9419C31.4427 17.7806 33.8557 19.1225 35.3912 21.0193C36.875 18.5419 41.0428 12.7741 41.9976 11.4709Z" fill="#4A4A4A"/>
<path d="M35.8814 8.39311C37.404 8.39311 38.6427 7.23181 38.6427 5.78664C38.6427 4.34147 37.404 3.18018 35.8814 3.18018C34.3588 3.18018 33.1201 4.34147 33.1201 5.78664C33.1201 7.21891 34.3588 8.39311 35.8814 8.39311ZM33.6233 9.5157H38.1395V21.3222H33.6233V9.5157Z" fill="#BFC0C9"/>
<path d="M31.3906 12.9605C31.4293 12.9734 31.4551 12.9605 31.4551 12.9218V9.92825C31.4551 9.88954 31.4293 9.85083 31.3906 9.82502C31.3906 9.82502 30.7971 9.43792 28.9906 9.3347C28.9003 9.28308 27.3132 9.27018 26.8874 9.3347C20.3067 9.86373 20.0615 14.6251 20.0615 14.8315V15.9928C20.0615 16.1347 20.0615 20.9993 26.8874 21.4251C27.5583 21.4767 28.8616 21.4251 28.9906 21.4251C30.5648 21.4251 31.6487 20.9477 31.6487 20.9477C31.6874 20.9348 31.7132 20.8961 31.7132 20.8573V18.0573C31.7132 18.0186 31.6874 18.0057 31.6616 18.0315C31.6616 18.0315 31.1713 18.4186 29.0293 18.638C28.4229 18.7025 28.1261 18.6767 27.9067 18.638C24.8616 18.1218 24.7196 15.9025 24.7196 15.9025C24.7196 15.8638 24.7067 15.7993 24.7067 15.7734V14.9218C24.7067 14.8831 24.7067 14.8186 24.7196 14.7928C24.7196 14.7928 24.9261 12.4057 27.9067 12.1476H29.0293C30.3326 12.3154 31.3906 12.9605 31.3906 12.9605Z" fill="#BFC0C9"/>
<path d="M7.51953 21.2836C7.51953 21.3223 7.54534 21.3481 7.58405 21.3481H11.9841C12.0228 21.3481 12.0486 21.3223 12.0486 21.2836V17.8513C12.0486 17.8126 12.0744 17.7868 12.1131 17.7868C12.1131 17.7868 19.1454 18.29 19.1454 13.5803C19.1454 9.85123 14.7325 9.45123 13.2873 9.51575C13.2615 9.51575 7.58405 9.51575 7.58405 9.51575C7.54534 9.51575 7.51953 9.54155 7.51953 9.58026V21.2836ZM11.9712 15.1674V12.0835H13.055C13.055 12.0835 14.6163 12.148 14.7454 13.219C14.7712 13.2964 14.7712 13.8254 14.7454 13.8513C14.5389 15.1029 13.1841 15.1674 13.1841 15.1674H11.9712Z" fill="#BFC0C9"/>
<path d="M36.0108 27.0196C36.3721 27.0196 36.656 27.0196 37.1205 26.8131C38.7205 25.9744 44.127 12.7743 49.8303 8.70978C49.869 8.68398 49.9077 8.64527 49.9335 8.60656C49.9722 8.55494 49.9722 8.50333 49.9722 8.50333C49.9722 8.50333 49.9722 8.23236 49.1335 8.23236C44.0625 8.09043 38.7851 18.7356 36.0108 22.9421C35.9721 22.9937 35.7915 22.9421 35.7915 22.9421C35.7915 22.9421 33.9334 20.7486 32.3205 19.9098C32.2818 19.8969 32.1011 19.8324 31.9076 19.8453C31.7786 19.8453 31.0302 20.0002 30.6818 20.3615C30.2689 20.8002 30.2818 21.0453 30.2818 21.5744C30.2818 21.6131 30.3076 21.7937 30.3592 21.8841C30.7592 22.5808 32.5528 25.0583 34.0366 26.426C34.256 26.5938 34.6044 27.0196 36.0108 27.0196Z" fill="#595959"/>
<path d="M53.417 17.2L54.1912 17.4323C54.1396 17.6516 54.0622 17.8323 53.946 17.9742C53.8299 18.1162 53.7009 18.2323 53.5331 18.2968C53.3654 18.3742 53.1589 18.4129 52.9009 18.4129C52.5912 18.4129 52.346 18.3742 52.1396 18.2839C51.946 18.1936 51.7783 18.0387 51.6363 17.8065C51.4944 17.5871 51.417 17.2904 51.417 16.942C51.417 16.4774 51.546 16.1161 51.7912 15.8581C52.0363 15.6 52.3976 15.4839 52.8493 15.4839C53.2106 15.4839 53.4815 15.5613 53.688 15.7032C53.8944 15.8452 54.0493 16.0645 54.1396 16.3742L53.3654 16.542C53.3396 16.4516 53.3138 16.3871 53.2751 16.3484C53.2235 16.2839 53.1718 16.2323 53.0944 16.1936C53.017 16.1549 52.9396 16.142 52.8622 16.142C52.6686 16.142 52.5138 16.2194 52.4105 16.3871C52.3331 16.5032 52.2944 16.6968 52.2944 16.942C52.2944 17.2516 52.346 17.471 52.4364 17.5871C52.5267 17.7033 52.6686 17.7678 52.8364 17.7678C53.0041 17.7678 53.1331 17.7162 53.2106 17.6258C53.3138 17.5097 53.3783 17.3807 53.417 17.2Z" fill="#4A4A4A"/>
<path d="M54.501 16.9422C54.501 16.4777 54.63 16.1164 54.8881 15.8583C55.1461 15.6002 55.5074 15.4712 55.972 15.4712C56.4494 15.4712 56.8107 15.6002 57.0687 15.8454C57.3268 16.1035 57.4558 16.4518 57.4558 16.9164C57.4558 17.2518 57.4042 17.5228 57.2881 17.7293C57.172 17.9357 57.0171 18.1035 56.7978 18.2196C56.5913 18.3357 56.3203 18.4002 56.0107 18.4002C55.6881 18.4002 55.43 18.3486 55.2107 18.2454C55.0042 18.1422 54.8365 17.9873 54.6945 17.7551C54.5526 17.5228 54.501 17.2777 54.501 16.9422ZM55.3784 16.9422C55.3784 17.226 55.43 17.4325 55.5332 17.5615C55.6365 17.6906 55.7784 17.7551 55.972 17.7551C56.1655 17.7551 56.3074 17.6906 56.4107 17.5744C56.5139 17.4454 56.5655 17.226 56.5655 16.9164C56.5655 16.6454 56.5139 16.4518 56.3978 16.3357C56.2945 16.2067 56.1397 16.1551 55.9591 16.1551C55.7784 16.1551 55.6365 16.2196 55.5332 16.3486C55.43 16.4518 55.3784 16.6583 55.3784 16.9422Z" fill="#4A4A4A"/>
<path d="M57.9076 15.5229H59.056L59.4947 17.252L59.9335 15.5229H61.0819V18.3617H60.3593V16.1939L59.8044 18.3617H59.1593L58.6044 16.1939V18.3617H57.8818V15.5229H57.9076Z" fill="#4A4A4A"/>
<path d="M61.6494 15.5229H63.1075C63.4301 15.5229 63.6623 15.6004 63.8172 15.7552C63.972 15.91 64.0494 16.1165 64.0494 16.4004C64.0494 16.6842 63.9591 16.9165 63.7914 17.0713C63.6236 17.2391 63.3526 17.3165 63.0043 17.3165H62.5268V18.3746H61.6494V15.5229ZM62.5268 16.7359H62.7462C62.9139 16.7359 63.0301 16.7101 63.1075 16.6455C63.172 16.581 63.2107 16.5165 63.2107 16.4262C63.2107 16.3359 63.1849 16.2584 63.1204 16.1939C63.0559 16.1294 62.9526 16.1036 62.7849 16.1036H62.5397V16.7359H62.5268Z" fill="#4A4A4A"/>
<path d="M64.5142 15.5229H65.3916V17.6649H66.7593V18.3617H64.5142V15.5229Z" fill="#4A4A4A"/>
<path d="M67.1982 15.5229H68.0757V18.3617H67.1982V15.5229Z" fill="#4A4A4A"/>
<path d="M70.4496 17.884H69.4561L69.3142 18.3485H68.4238L69.4948 15.5098H70.4496L71.5206 18.3485H70.6045L70.4496 17.884ZM70.269 17.2775L69.9593 16.2582L69.6496 17.2775H70.269Z" fill="#4A4A4A"/>
<path d="M71.791 15.5229H72.6039L73.6749 17.0971V15.5229H74.5007V18.3617H73.6749L72.6168 16.8004V18.3617H71.791V15.5229Z" fill="#4A4A4A"/>
<path d="M74.8882 15.5229H77.5592V16.2197H76.6688V18.3617H75.7914V16.2197H74.9011V15.5229H74.8882Z" fill="#4A4A4A"/>
<path d="M51.3267 4.72266H55.546C56.3848 4.72266 57.0557 4.83879 57.559 5.05814C58.0751 5.2904 58.5009 5.61298 58.8235 6.02589C59.159 6.4517 59.4041 6.94202 59.5461 7.49687C59.7009 8.05171 59.7783 8.64526 59.7783 9.27752C59.7783 10.2582 59.6622 11.0195 59.4428 11.5614C59.2235 12.1033 58.9138 12.555 58.5138 12.9292C58.1138 13.2904 57.688 13.5356 57.2364 13.6646C56.617 13.8324 56.0493 13.9098 55.546 13.9098H51.3267V4.72266ZM54.1654 6.80009V11.8195H54.8622C55.4557 11.8195 55.8815 11.755 56.1267 11.6259C56.3719 11.4969 56.5783 11.2646 56.7202 10.942C56.8622 10.6195 56.9396 10.0775 56.9396 9.34204C56.9396 8.36139 56.7848 7.70332 56.4622 7.34202C56.1396 6.98073 55.6235 6.80009 54.8751 6.80009H54.1654Z" fill="#4A4A4A"/>
<path d="M60.5654 10.8773L63.2751 10.7096C63.3396 11.1483 63.4558 11.4838 63.6364 11.716C63.9332 12.0902 64.3461 12.2709 64.888 12.2709C65.288 12.2709 65.6106 12.1805 65.83 11.987C66.0493 11.7934 66.1655 11.5741 66.1655 11.3289C66.1655 11.0967 66.0622 10.8773 65.8558 10.6838C65.6493 10.4902 65.159 10.3225 64.3977 10.1547C63.1461 9.87085 62.2687 9.49665 61.7267 9.03213C61.1848 8.56761 60.9267 7.97406 60.9267 7.25148C60.9267 6.77406 61.0687 6.33535 61.3396 5.90954C61.6106 5.48373 62.0235 5.16114 62.5783 4.91598C63.1332 4.67082 63.8816 4.55469 64.8364 4.55469C66.0106 4.55469 66.9139 4.77404 67.5203 5.21276C68.1397 5.65147 68.501 6.34825 68.6171 7.30309L65.9332 7.45793C65.8558 7.04503 65.7138 6.74825 65.4816 6.5547C65.2493 6.36115 64.9397 6.27083 64.5396 6.27083C64.2042 6.27083 63.959 6.33534 63.7913 6.47728C63.6235 6.61922 63.5461 6.78696 63.5461 6.99341C63.5461 7.13535 63.6106 7.27729 63.7525 7.39342C63.8816 7.50955 64.2042 7.62567 64.7074 7.7289C65.9461 7.99987 66.8364 8.27084 67.3784 8.54181C67.9203 8.81278 68.3074 9.16117 68.5526 9.56117C68.7977 9.96117 68.9139 10.4257 68.9139 10.9289C68.9139 11.5225 68.7461 12.0644 68.4235 12.5547C68.101 13.058 67.6364 13.4322 67.0558 13.6902C66.4751 13.9483 65.7268 14.0773 64.8364 14.0773C63.2751 14.0773 62.1912 13.7805 61.5848 13.1741C60.9912 12.5676 60.6558 11.8063 60.5654 10.8773Z" fill="#4A4A4A"/>
<path d="M69.6367 10.8773L72.3464 10.7096C72.4109 11.1483 72.5271 11.4838 72.7077 11.716C73.0045 12.0902 73.4174 12.2709 73.9593 12.2709C74.3593 12.2709 74.6819 12.1805 74.9013 11.987C75.1206 11.7934 75.2367 11.5741 75.2367 11.3289C75.2367 11.0967 75.1335 10.8773 74.9271 10.6838C74.7206 10.4902 74.2303 10.3225 73.469 10.1547C72.2174 9.87085 71.34 9.49665 70.798 9.03213C70.269 8.56761 69.998 7.97406 69.998 7.25148C69.998 6.77406 70.1399 6.33535 70.4109 5.90954C70.6819 5.48373 71.0948 5.16114 71.6496 4.91598C72.2045 4.67082 72.9529 4.55469 73.9077 4.55469C75.0819 4.55469 75.9851 4.77404 76.5916 5.21276C77.211 5.65147 77.5722 6.34825 77.6884 7.30309L75.0045 7.45793C74.9271 7.04503 74.7851 6.74825 74.5529 6.5547C74.3206 6.36115 74.0109 6.27083 73.6109 6.27083C73.2754 6.27083 73.0303 6.33534 72.8625 6.47728C72.6948 6.61922 72.6174 6.78696 72.6174 6.99341C72.6174 7.13535 72.6819 7.27729 72.8238 7.39342C72.9529 7.50955 73.2754 7.62567 73.7787 7.7289C75.0174 7.99987 75.9077 8.27084 76.4497 8.54181C76.9916 8.81278 77.3787 9.16117 77.6239 9.56117C77.869 9.96117 77.9852 10.4257 77.9852 10.9289C77.9852 11.5225 77.8174 12.0644 77.4948 12.5547C77.1722 13.058 76.7077 13.4322 76.1271 13.6902C75.5464 13.9483 74.798 14.0773 73.9077 14.0773C72.3464 14.0773 71.2625 13.7805 70.6561 13.1741C70.0496 12.5676 69.7141 11.8063 69.6367 10.8773Z" fill="#4A4A4A"/>
</svg>
