<svg width="42" height="43" viewBox="0 0 42 43" fill="none" xmlns="http://www.w3.org/2000/svg">
<path d="M8.76042 21.3125C9.66319 19.0209 10.7486 16.816 12.0167 14.6979C13.2847 12.5799 14.7167 10.5834 16.3125 8.70835L13.6042 8.13543C12.9097 7.99655 12.2326 8.03127 11.5729 8.2396C10.9132 8.44793 10.3403 8.79516 9.85417 9.28127L3.29167 15.8438C2.77083 16.3646 2.57083 16.9896 2.69167 17.7188C2.8125 18.4479 3.22083 18.9514 3.91667 19.2292L8.76042 21.3125ZM39.3854 1.00002C35.7049 0.826407 32.2069 1.53821 28.8917 3.13543C25.5764 4.73266 22.616 6.83335 20.0104 9.43752C18.3437 11.1042 16.8764 12.9097 15.6083 14.8542C14.3403 16.7986 13.2389 18.8472 12.3042 21C12.1306 21.4514 12.0437 21.9118 12.0437 22.3813C12.0437 22.8507 12.2174 23.2584 12.5646 23.6042L19.075 30.1146C19.4222 30.4618 19.8306 30.6354 20.3 30.6354C20.7694 30.6354 21.2292 30.5486 21.6792 30.375C23.8319 29.4375 25.8806 28.3347 27.825 27.0667C29.7694 25.7986 31.575 24.332 33.2417 22.6667C35.8458 20.0625 37.9465 17.1028 39.5437 13.7875C41.141 10.4722 41.8521 6.97363 41.6771 3.29168C41.6771 3.01391 41.6076 2.73613 41.4688 2.45835C41.3299 2.18057 41.1562 1.93752 40.9479 1.72918C40.7396 1.52085 40.4965 1.34724 40.2188 1.20835C39.941 1.06946 39.6632 1.00002 39.3854 1.00002ZM26.1562 16.5209C25.3576 15.7222 24.9583 14.7417 24.9583 13.5792C24.9583 12.4167 25.3576 11.4354 26.1562 10.6354C26.9549 9.83543 27.9361 9.43613 29.1 9.43752C30.2639 9.43891 31.2444 9.83821 32.0417 10.6354C32.8389 11.4327 33.2382 12.4139 33.2396 13.5792C33.241 14.7445 32.8417 15.725 32.0417 16.5209C31.2417 17.3167 30.2611 17.716 29.1 17.7188C27.9389 17.7215 26.9576 17.3222 26.1562 16.5209ZM21.3646 33.9167L23.4479 38.7604C23.7257 39.4549 24.2292 39.8715 24.9583 40.0104C25.6875 40.1493 26.3125 39.9584 26.8333 39.4375L33.3958 32.875C33.8819 32.3889 34.2292 31.8077 34.4375 31.1313C34.6458 30.4549 34.6806 29.7688 34.5417 29.0729L34.0208 26.3646C32.1111 27.9618 30.1062 29.3945 28.0062 30.6625C25.9062 31.9306 23.6924 33.0153 21.3646 33.9167ZM4.4375 29.4375C5.65278 28.2222 7.12847 27.6056 8.86458 27.5875C10.6007 27.5695 12.0764 28.1688 13.2917 29.3854C14.5069 30.6021 15.1146 32.0778 15.1146 33.8125C15.1146 35.5472 14.5069 37.0229 13.2917 38.2396C11.625 39.9063 9.65417 40.8959 7.37917 41.2084C5.10417 41.5209 2.82153 41.8334 0.53125 42.1459C0.84375 39.8542 1.16528 37.5715 1.49583 35.2979C1.82639 33.0243 2.80694 31.0708 4.4375 29.4375Z" fill="#72E484"/>
</svg>
