<svg width="24" height="24" viewBox="0 0 24 24" fill="none" xmlns="http://www.w3.org/2000/svg">
<path fill-rule="evenodd" clip-rule="evenodd" d="M21.671 12.0001L21.6744 12.0968L21.6845 12.1938L21.7014 12.2912L21.725 12.3893L21.7552 12.4883L21.7919 12.5883L21.8351 12.6897L21.8846 12.7925L21.9403 12.8971L22.0019 13.0036L22.0693 13.1122L22.1421 13.223L22.2202 13.3362L22.3032 13.452L22.3906 13.5704L22.4821 13.6916L22.5771 13.8157L22.6751 13.9426L22.7755 14.0724L22.8776 14.2051L22.9807 14.3405L23.084 14.4786L23.1865 14.6193L23.2875 14.7623L23.3858 14.9073L23.4806 15.0541L23.5707 15.2023L23.655 15.3515L23.7325 15.5012L23.8022 15.6509L23.8628 15.8L23.9136 15.9481L23.9535 16.0944L23.9816 16.2384L23.9973 16.3794L24 16.5168L23.9892 16.6502L23.9645 16.7788L23.9259 16.9022L23.8734 17.02L23.8071 17.1317L23.7275 17.2372L23.6351 17.3361L23.5305 17.4283L23.4145 17.5138L23.2881 17.5927L23.1522 17.6649L23.0079 17.7308L22.8563 17.7906L22.6985 17.8446L22.5357 17.8932L22.3689 17.9368L22.1992 17.9759L22.0277 18.0108L21.8553 18.0423L21.6829 18.0707L21.5115 18.0965L21.3416 18.1203L21.1741 18.1425L21.0095 18.1637L20.8484 18.1842L20.6912 18.2046L20.5383 18.2253L20.3901 18.2467L20.2469 18.2692L20.1087 18.2931L19.9759 18.3189L19.8485 18.3467L19.7267 18.377L19.6104 18.41L19.4996 18.446L19.3944 18.4853L19.2947 18.5281L19.2005 18.5746L19.1116 18.6251L19.028 18.6797L18.9496 18.7387L18.8761 18.8022L18.8075 18.8703L18.7437 18.9434L18.6844 19.0215L18.6294 19.1047L18.5786 19.1931L18.5318 19.2869L18.4887 19.3861L18.4492 19.4909L18.4129 19.6012L18.3797 19.7171L18.3492 19.8385L18.3211 19.9654L18.2953 20.0978L18.2712 20.2355L18.2486 20.3784L18.2272 20.5262L18.2064 20.6787L18.186 20.8356L18.1655 20.9964L18.1444 21.1607L18.1222 21.328L18.0986 21.4977L18.0729 21.6691L18.0448 21.8414L18.0136 22.0138L17.9789 22.1855L17.9402 22.3553L17.897 22.5224L17.8488 22.6856L17.7953 22.8438L17.7359 22.996L17.6705 23.1409L17.5988 23.2775L17.5205 23.4047L17.4355 23.5215L17.3438 23.6271L17.2454 23.7205L17.1405 23.8011L17.0292 23.8685L16.9119 23.9221L16.7889 23.9618L16.6607 23.9876L16.5278 23.9995L16.3906 23.9979L16.2498 23.9832L16.1061 23.956L15.9599 23.917L15.812 23.8671L15.6629 23.8072L15.5132 23.7382L15.3635 23.6613L15.2143 23.5775L15.066 23.4878L14.9191 23.3934L14.7739 23.2953L14.6307 23.1945L14.4899 23.092L14.3515 22.9888L14.2159 22.8857L14.083 22.7834L13.953 22.6829L13.8258 22.5846L13.7016 22.4894L13.5801 22.3976L13.4615 22.3098L13.3455 22.2265L13.2321 22.148L13.1211 22.0747L13.0123 22.0069L12.9057 21.9448L12.8009 21.8887L12.6979 21.8387L12.5965 21.795L12.4963 21.7577L12.3973 21.727L12.2991 21.7029L12.2017 21.6855L12.1047 21.6748L12.0079 21.6709L11.9112 21.6737L11.8143 21.6834L11.7169 21.6997L11.6189 21.7227L11.52 21.7524L11.42 21.7886L11.3188 21.8313L11.216 21.8803L11.1116 21.9355L11.0053 21.9966L10.8969 22.0636L10.7862 22.136L10.6732 22.2137L10.5576 22.2962L10.4394 22.3833L10.3184 22.4745L10.1946 22.5693L10.0679 22.6671L9.93838 22.7673L9.80595 22.8693L9.67072 22.9723L9.53279 23.0756L9.39233 23.1783L9.24952 23.2794L9.10463 23.378L8.95796 23.4731L8.80987 23.5636L8.66076 23.6484L8.51109 23.7265L8.36138 23.7968L8.21216 23.8582L8.06401 23.9098L7.91753 23.9506L7.77334 23.9797L7.63206 23.9964L7.49429 24.0001L7.36062 23.9904L7.23161 23.9668L7.10776 23.9293L6.98952 23.8779L6.87727 23.8127L6.77131 23.7342L6.67188 23.6428L6.57911 23.5391L6.49306 23.424L6.4137 23.2984L6.34092 23.1632L6.27453 23.0196L6.21427 22.8685L6.15982 22.7112L6.11082 22.5487L6.06684 22.3822L6.02744 22.2127L5.99213 22.0413L5.96043 21.8689L5.93183 21.6965L5.90582 21.5249L5.88189 21.3549L5.85956 21.1872L5.83833 21.0223L5.81773 20.8609L5.79732 20.7034L5.77665 20.5502L5.75533 20.4016L5.73296 20.2579L5.70916 20.1194L5.68359 19.9862L5.65592 19.8583L5.62584 19.736L5.59306 19.6193L5.55729 19.5081L5.51828 19.4025L5.47579 19.3023L5.42958 19.2077L5.37944 19.1184L5.32516 19.0344L5.26654 18.9555L5.20341 18.8817L5.13559 18.8127L5.06292 18.7485L4.98527 18.6888L4.90249 18.6335L4.81447 18.5824L4.7211 18.5352L4.62229 18.4919L4.51798 18.4521L4.40813 18.4155L4.2927 18.3821L4.17172 18.3514L4.04521 18.3231L3.91325 18.2971L3.77596 18.2729L3.6335 18.2502L3.48606 18.2287L3.33393 18.2079L3.1774 18.1875L3.01688 18.167L2.85281 18.1459L2.68572 18.1239L2.5162 18.1004L2.34492 18.0749L2.17265 18.047L2.0002 18.0161L1.82848 17.9817L1.65844 17.9433L1.49111 17.9005L1.32755 17.8527L1.16888 17.7996L1.01622 17.7407L0.870684 17.6758L0.733388 17.6046L0.605395 17.5268L0.487709 17.4424L0.38125 17.3512L0.286833 17.2534L0.205148 17.149L0.136743 17.0382L0.0820103 16.9213L0.0411789 16.7988L0.0143068 16.671L0.0012818 16.5384L0.00182512 16.4015L0.0155 16.261L0.0417238 16.1175L0.0797837 15.9715L0.128855 15.8237L0.18802 15.6747L0.256291 15.525L0.332627 15.3753L0.415957 15.226L0.505199 15.0776L0.599275 14.9306L0.697127 14.7852L0.797728 14.6419L0.900098 14.5009L1.00331 14.3623L1.10648 14.2264L1.2088 14.0933L1.30952 13.9631L1.40796 13.8357L1.5035 13.7112L1.59557 13.5896L1.68367 13.4707L1.76736 13.3545L1.84624 13.2409L1.91996 13.1297L1.98824 13.0208L2.05079 12.9139L2.10741 12.8091L2.15789 12.7059L2.20209 12.6044L2.23987 12.5041L2.27111 12.405L2.29574 12.3068L2.31369 12.2093L2.32491 12.1123L2.32937 12.0155L2.32706 11.9188L2.31799 11.8219L2.30218 11.7245L2.27968 11.6266L2.25053 11.5278L2.21483 11.4279L2.17266 11.3268L2.12416 11.2241L2.06948 11.1199L2.00879 11.0137L1.94232 10.9055L1.8703 10.795L1.79302 10.6822L1.71083 10.5668L1.62409 10.4488L1.53323 10.328L1.43874 10.2045L1.34116 10.078L1.24109 9.94866L1.1392 9.81646L1.03621 9.68145L0.932925 9.54373L0.83019 9.40346L0.728921 9.26084L0.630084 9.1161L0.534692 8.96956L0.443794 8.82156L0.358463 8.67252L0.279782 8.52288L0.208827 8.37315L0.146651 8.22387L0.0942614 8.07562L0.0525997 7.92898L0.0225226 7.78459L0.00478076 7.64305L0 7.50498L0.00866508 7.37097L0.0311062 7.24156L0.0674893 7.11728L0.117811 6.99858L0.181896 6.88584L0.259403 6.77938L0.349833 6.67942L0.452539 6.58612L0.566744 6.49953L0.691559 6.41964L0.826005 6.34634L0.969033 6.27945L1.11955 6.21871L1.27643 6.16381L1.43855 6.11439L1.60479 6.07003L1.77408 6.03028L1.94538 5.99467L2.1177 5.9627L2.29012 5.93387L2.4618 5.90767L2.63195 5.8836L2.79989 5.86115L2.96498 5.83985L3.12669 5.81922L3.28453 5.79881L3.4381 5.77818L3.58706 5.75692L3.73114 5.73465L3.87009 5.71098L4.00376 5.68556L4.13202 5.65807L4.25477 5.62819L4.37196 5.59563L4.48359 5.56012L4.58966 5.52138L4.69022 5.47917L4.78531 5.43327L4.87503 5.38344L4.95946 5.3295L5.03874 5.27123L5.11298 5.20847L5.18232 5.14103L5.24693 5.06875L5.30696 4.9915L5.36261 4.90914L5.41405 4.82153L5.46149 4.72859L5.50514 4.63022L5.54523 4.52635L5.582 4.41694L5.61571 4.30196L5.64662 4.18142L5.67502 4.05535L5.70122 3.92382L5.72555 3.78695L5.74834 3.64489L5.76995 3.49784L5.79078 3.34607L5.81123 3.18988L5.83172 3.02966L5.8527 2.86586L5.87463 2.69898L5.89799 2.52963L5.92329 2.35847L5.95101 2.18625L5.98167 2.01378L6.01577 1.84197L6.05381 1.67176L6.09628 1.50417L6.14364 1.34028L6.19631 1.18117L6.25468 1.02799L6.31909 0.881848L6.38981 0.743856L6.46706 0.615085L6.55097 0.496543L6.6416 0.389159L6.73892 0.293756L6.84282 0.211035L6.9531 0.141556L7.06947 0.0857238L7.19158 0.043781L7.319 0.0157992L7.45124 0.00167953L7.58777 0.00115637L7.728 0.013805L7.87133 0.039054L8.01714 0.0762003L8.16483 0.124427L8.31377 0.182824L8.46339 0.250407L8.61312 0.32614L8.76246 0.408953L8.91092 0.497764L9.05809 0.591494L9.20358 0.689083L9.34708 0.789502L9.48832 0.891766L9.62707 0.994939L9.76317 1.09814L9.8965 1.20056L10.027 1.30144L10.1546 1.40009L10.2793 1.49587L10.4012 1.58824L10.5203 1.67667L10.6367 1.76073L10.7505 1.84L10.8619 1.91415L10.971 1.98287L11.0779 2.04589L11.183 2.10298L11.2862 2.15396L11.3879 2.19867L11.4883 2.23696L11.5875 2.26873L11.6858 2.29389L11.7833 2.31237L11.8804 2.32412L11.9771 2.32912L12.0739 2.32735L12.1707 2.31882L12.268 2.30355L12.3659 2.28158L12.4647 2.25296L12.5644 2.21777L12.6655 2.17612L12.768 2.12812L12.8721 2.07392L12.9781 2.0137L13.0862 1.94768L13.1964 1.87609L13.3091 1.79923L13.4242 1.71741L13.542 1.63101L13.6626 1.54047L13.7859 1.44625L13.9122 1.34889L14.0413 1.249L14.1732 1.14722L14.308 1.0443L14.4455 0.941004L14.5856 0.838192L14.7281 0.736771L14.8726 0.637704L15.019 0.542L15.1669 0.450705L15.3159 0.364891L15.4655 0.28564L15.6153 0.214032L15.7646 0.151119L15.913 0.0979146L16.0597 0.0553659L16.2043 0.0243373L16.3461 0.00558846L16.4845 -0.000244141L16.6189 0.007336L16.7486 0.0286718L16.8733 0.0639425L16.9925 0.113158L17.1057 0.176157L17.2127 0.252612L17.3132 0.342035L17.407 0.44379L17.4942 0.55711L17.5746 0.681116L17.6484 0.814833L17.7158 0.957217L17.777 1.10718L17.8324 1.26359L17.8822 1.42533L17.9269 1.59129L17.967 1.76038L18.003 1.93155L18.0352 2.10382L18.0643 2.27627L18.0907 2.44803L18.1149 2.61834L18.1374 2.78647L18.1588 2.95181L18.1795 3.11381L18.1999 3.27197L18.2205 3.4259L18.2417 3.57524L18.2639 3.71971L18.2874 3.85908L18.3127 3.99318L18.34 4.12187L18.3697 4.24506L18.402 4.3627L18.4373 4.47477L18.4757 4.58128L18.5177 4.68227L18.5633 4.7778L18.6128 4.86794L18.6664 4.95279L18.7243 5.03247L18.7867 5.10711L18.8538 5.17684L18.9256 5.24182L19.0025 5.30221L19.0844 5.3582L19.1716 5.40996L19.2641 5.45771L19.3621 5.50166L19.4655 5.54202L19.5745 5.57905L19.689 5.61299L19.8091 5.64411L19.9347 5.67271L20.0658 5.69907L20.2023 5.72353L20.3439 5.74643L20.4906 5.76813L20.642 5.789L20.7979 5.80947L20.9578 5.82994L21.1213 5.85086L21.288 5.8727L21.4571 5.89593L21.6282 5.92105L21.8003 5.94856L21.9728 5.97897L22.1447 6.01278L22.3151 6.05049L22.4829 6.09259L22.6472 6.13954L22.8067 6.19177L22.9604 6.24968L23.1071 6.31359L23.2458 6.38381L23.3754 6.46053L23.4947 6.54391L23.6031 6.634L23.6994 6.73079L23.7832 6.83417L23.8537 6.94395L23.9107 7.05985L23.9537 7.18152L23.9828 7.30853L23.998 7.44041L23.9996 7.57661L23.988 7.71657L23.9637 7.85968L23.9275 8.00532L23.8801 8.15287L23.8225 8.30174L23.7556 8.45132L23.6805 8.60107L23.5982 8.75046L23.5098 8.89901L23.4165 9.04629L23.3191 9.19193L23.2189 9.3356L23.1168 9.47702L23.0136 9.61598L22.9104 9.7523L22.8079 9.88585L22.7069 10.0166L22.608 10.1444L22.512 10.2693L22.4193 10.3914L22.3305 10.5108L22.2461 10.6274L22.1665 10.7414L22.0919 10.853L22.0227 10.9622L21.9592 11.0694L21.9017 11.1745L21.8502 11.2779L21.805 11.3798L21.7662 11.4802L21.7339 11.5795L21.7082 11.6778L21.6892 11.7754L21.6769 11.8725L21.6714 11.9693L21.671 12.0001Z" fill="#683DE5"/>
</svg>
