<svg width="28" height="20" viewBox="0 0 28 20" fill="none" xmlns="http://www.w3.org/2000/svg">
<path d="M11.3337 13.9998L18.2537 9.99984L11.3337 5.99984V13.9998ZM26.747 3.55984C26.9203 4.1865 27.0403 5.0265 27.1203 6.09317C27.2137 7.15984 27.2537 8.07984 27.2537 8.87984L27.3337 9.99984C27.3337 12.9198 27.1203 15.0665 26.747 16.4398C26.4137 17.6398 25.6403 18.4132 24.4403 18.7465C23.8137 18.9198 22.667 19.0398 20.907 19.1198C19.1737 19.2132 17.587 19.2532 16.1203 19.2532L14.0003 19.3332C8.41366 19.3332 4.93366 19.1198 3.56033 18.7465C2.36033 18.4132 1.58699 17.6398 1.25366 16.4398C1.08033 15.8132 0.960326 14.9732 0.880326 13.9065C0.786992 12.8398 0.746992 11.9198 0.746992 11.1198L0.666992 9.99984C0.666992 7.07984 0.880326 4.93317 1.25366 3.55984C1.58699 2.35984 2.36033 1.5865 3.56033 1.25317C4.18699 1.07984 5.33366 0.959837 7.09366 0.879837C8.82699 0.786504 10.4137 0.746504 11.8803 0.746504L14.0003 0.666504C19.587 0.666504 23.067 0.879837 24.4403 1.25317C25.6403 1.5865 26.4137 2.35984 26.747 3.55984Z" fill="#F5F5F5"/>
</svg>
